<?xml version="1.0" encoding="iso-8859-1" ?>
              <svg
                version="1.1"
                xmlns="http://www.w3.org/2000/svg"
                xmlns:xlink="http://www.w3.org/1999/xlink"
                viewBox="0 0 939 626"
                width="939"
                height="626"
              >
                <g transform="translate(14.867500000000007 -12.520000000000039) scale(1.1365812499999999 1.1359291666666667)" ><defs>
    <clipPath id="clipPath_mQjKGqxzFaq22_Aa3j6aX">
    <rect x="0" y="0" width="800" height="600" />
    </clipPath></defs> <path d="M672.876,476.948l12.227-3.821c0.983-0.655,2.074-1.092,3.057-1.965l-18.996,6.114  C670.474,477.166,671.675,477.166,672.876,476.948z M664.251,476.948l27.62-8.952c0.546-0.437,0.873-0.983,1.419-1.419  l-30.895,9.825C663.05,476.729,663.705,476.838,664.251,476.948z M659.448,475.747l36.135-11.572  c0.437-0.327,0.546-0.764,0.983-1.201l-38.101,12.118C658.793,475.528,659.12,475.528,659.448,475.747z M656.609,473.891  l41.485-13.319c0.218-0.327,0.437-0.764,0.655-1.092l-42.795,13.756C656.063,473.563,656.391,473.782,656.609,473.891z   M654.535,471.816l45.197-14.411c0.218-0.328,0.218-0.655,0.437-1.092l-46.179,14.847  C654.317,471.38,654.426,471.707,654.535,471.816z M653.225,469.633l48.035-15.284c0-0.327,0.218-0.655,0.218-1.092l-48.69,15.611  C652.898,469.087,653.007,469.415,653.225,469.633z M652.024,467.231l49.891-16.048c0-0.328,0.109-0.655,0.218-1.092l-50.437,16.048  C651.806,466.685,651.915,466.904,652.024,467.231z M651.151,464.83l51.419-16.485c0-0.327,0.109-0.655,0.109-0.983l-51.856,16.703  C650.932,464.175,651.042,464.502,651.151,464.83z M650.714,461.882c0.109,0.109-0.109,0.218,0,0.327l52.293-16.703  c0-0.327,0.109-0.655,0.109-0.983l-52.075,16.594C650.932,461.336,650.823,461.554,650.714,461.882z M653.443,458.17  c-0.109,0.109-0.218,0.328-0.437,0.328l50.109-16.048c0-0.328-0.109-0.546,0-0.873l-48.799,15.721  C653.88,457.624,653.662,457.952,653.443,458.17z M655.845,455.004l46.834-14.956c0-0.328-0.109-0.546-0.218-0.873l-46.179,14.847  C656.282,454.349,656.063,454.568,655.845,455.004z M657.374,451.729l45.088-14.411c-0.109-0.327-0.109-0.546-0.218-0.873  l-44.433,14.301C657.483,451.183,657.483,451.511,657.374,451.729z M658.138,448.781l43.668-13.865  c-0.109-0.328-0.218-0.437-0.218-0.873l-43.122,13.865C658.247,448.236,658.138,448.454,658.138,448.781z M658.356,445.943  l42.467-13.537c-0.109-0.327-0.218-0.437-0.327-0.764l-42.249,13.428C658.356,445.397,658.356,445.725,658.356,445.943z   M658.138,443.214l41.267-13.21c-0.109-0.327-0.218-0.437-0.328-0.764l-41.048,13.1  C658.138,442.668,658.138,443.105,658.138,443.214z M657.592,440.703l40.284-12.991c-0.109-0.327-0.437-0.546-0.546-0.655  l-40.175,12.882C657.374,440.266,657.483,440.484,657.592,440.703z M695.365,424.982l-39.192,12.445  c0.109,0.327,0.218,0.437,0.328,0.764l39.52-12.664C696.02,425.419,695.693,425.201,695.365,424.982z M693.072,423.017  l-38.21,12.227c0.109,0.328,0.437,0.546,0.546,0.655l38.537-12.336C693.618,423.563,693.291,423.236,693.072,423.017z   M690.016,421.27l-36.463,11.572c0.109,0.328,0.218,0.437,0.328,0.764l37.227-12.009C690.671,421.598,690.452,421.38,690.016,421.27  z M686.195,419.851c-0.109,0.109-0.218-0.109-0.327,0l-32.205,10.262c-0.109,0.218-0.109,0.655-0.109,0.983l34.061-10.917  C687.068,420.179,686.631,419.96,686.195,419.851z M678.007,419.524l-20.852,6.659c-0.655,0.546-1.419,0.983-2.074,1.528  l26.419-8.406C680.409,419.415,679.099,419.415,678.007,419.524z" fill="#E6E6E6"/> <g>     <linearGradient id="SVGID_1_mQjKGqxzFaq22_Aa3j6aX" gradientUnits="userSpaceOnUse" x1="5958.4717" y1="-2529.595" x2="7354.1338" y2="-2529.595" gradientTransform="matrix(0.1 0 0 -0.1 0 18)">   <stop offset="0" stop-color="#B9D3FD"/>   <stop offset="1" stop-color="#89B3F4"/>  </linearGradient>  <path d="M734.666,291.794c1.528,4.585-0.218,9.498-2.511,13.756   c-6.223,11.681-16.266,21.288-28.275,26.856c-6.659,3.166-13.865,5.022-20.742,7.86c-19.978,8.297-36.245,24.891-43.996,45.088   c2.293-13.974-5.022-27.839-13.974-38.865c-8.843-11.026-19.542-20.961-25.873-33.625c-5.459-10.917-5.568-27.074,5.459-32.315   c8.079-3.821,18.232,0.437,26.529-3.057c2.948-1.31,5.568-3.93,5.458-7.096c-0.437-8.079-16.376-7.533-16.812-15.611   c-0.437-9.28,24.018-6.55,20.852-15.393c-1.31-3.712-6.55-4.804-8.297-8.297c-1.856-3.493-1.747-8.406,1.419-10.917   c4.039-3.275,10.153-0.655,15.284-1.856c5.786-1.31,9.498-7.205,10.699-13.1c1.201-5.895,0.546-11.9,1.419-17.795   c2.074-14.52,13.974-27.074,28.275-30.131c14.301-3.057,30.24,3.712,37.991,16.157c3.166,5.131,4.913,12.009,1.528,16.921   c-2.948,4.148-9.279,6.878-8.734,11.9c0.655,6.878,13.428,7.533,13.646,14.411c0.218,8.079-16.376,8.079-15.939,16.157   c0.218,3.603,4.039,5.677,6.332,8.515c4.367,5.24,2.62,14.301-3.384,17.576c-2.402,1.31-5.24,1.856-7.096,3.712   c-4.804,4.694-0.109,12.991,5.568,16.485C725.169,282.624,732.592,285.353,734.666,291.794z" fill="url(#SVGID_1_mQjKGqxzFaq22_Aa3j6aX)"/>     <linearGradient id="SVGID_2_mQjKGqxzFaq22_Aa3j6aX" gradientUnits="userSpaceOnUse" x1="6414.0796" y1="-2855.1492" x2="7869.9307" y2="-2855.1492" gradientTransform="matrix(0.1 0 0 -0.1 0 18)">   <stop offset="0" stop-color="#DEEAFE"/>   <stop offset="1" stop-color="#E9F1FE"/>  </linearGradient>  <path d="M692.745,292.34c3.384-1.856,6.987-3.603,9.716-6.441c5.568-6.114,5.24-15.284,5.677-23.581   c0.437-8.297,3.384-18.013,11.354-20.197c6.659-1.856,15.066,2.183,19.978-2.62c1.856-1.747,2.62-4.367,3.93-6.55   c5.677-9.498,20.633-8.734,28.93-1.419c8.188,7.314,11.354,18.668,14.083,29.367c0.983,3.93,1.092,9.389-2.729,10.48   c-3.712,0.983-7.424-3.603-10.917-2.183c-2.838,1.092-3.057,5.131-1.965,8.079c0.983,2.838,2.729,5.786,2.074,8.843   c-1.31,5.677-9.279,6.004-14.956,4.476c-5.677-1.528-12.991-3.057-16.266,1.856c3.603,11.463,6.659,25.437-1.419,34.498   c-9.279,10.371-26.419,9.28-40.284,10.59c-25.764,2.402-43.996,22.052-58.516,43.559   C640.561,345.069,661.195,309.48,692.745,292.34z" fill="url(#SVGID_2_mQjKGqxzFaq22_Aa3j6aX)"/> </g> <g>  <path d="M660.43,364.72c-0.109,0-0.109,0-0.218,0c-0.328-0.109-0.437-0.437-0.328-0.655   c13.101-40.066,33.952-67.904,72.053-95.961c7.096-5.24,28.494-14.083,37.773-14.847c0.218,0,0.546,0.218,0.546,0.546   s-0.218,0.546-0.546,0.546c-8.843,0.764-30.349,9.607-37.118,14.629c-37.991,27.948-58.734,55.568-71.725,95.415   C660.867,364.502,660.649,364.72,660.43,364.72z" fill="#FFFFFF"/> </g> <path d="M680.627,247.252l-4.367-12.009c-1.528-0.109-3.166,0.109-4.694,0.655l4.694,12.882  c0.218,0.764-0.109,1.528-0.873,1.747c-0.764,0.218-1.528-0.109-1.747-0.873l-4.694-12.664c-1.419,0.873-2.62,2.074-3.603,3.384  l3.93,10.699c0.218,0.764-0.109,1.528-0.873,1.747c-0.764,0.218-1.528-0.109-1.747-0.873l-3.057-8.406  c-1.747,4.367-1.856,9.935,0.109,15.393c0,0.109,0.109,0.218,0.109,0.328c-0.983,0.546-2.074,1.201-2.948,1.965  c-2.729,1.965-6.223,5.349-7.424,10.153l1.31,0.328c1.092-4.367,4.367-7.533,6.878-9.28c0.873-0.655,1.747-1.201,2.729-1.747  c2.074,4.585,5.458,8.297,9.17,10.262l-2.948-7.969c-0.218-0.764,0.109-1.528,0.873-1.747s1.528,0.109,1.747,0.873l3.821,10.262  c1.638,0.437,3.275,0.546,4.913,0.218l-4.367-12.009c-0.218-0.764,0.109-1.528,0.873-1.747c0.764-0.218,1.528,0.109,1.747,0.873  l4.476,12.118c1.419-0.655,2.729-1.638,3.821-2.729l-4.039-10.917c-0.218-0.764,0.109-1.528,0.873-1.747  c0.764-0.218,1.528,0.109,1.747,0.873l3.493,9.389c1.092-1.638,2.074-3.384,2.948-5.24l-2.183-5.895  c-0.218-0.764,0.109-1.528,0.873-1.747c0.764-0.218,1.528,0.109,1.747,0.873l1.201,3.166c2.183-5.24,3.603-10.371,5.459-12.009  c-3.057-0.655-7.314-3.493-12.009-6.114l1.528,4.039c0.218,0.764-0.109,1.528-0.873,1.747c-0.764,0.218-1.528-0.109-1.747-0.873  l-2.511-6.878c-1.856-0.873-3.712-1.528-5.568-1.965l3.821,10.59c0.218,0.764-0.109,1.528-0.873,1.747  C681.719,248.344,680.954,248.016,680.627,247.252z" fill="#FFFFFF"/> <rect x="342.853" y="380.986" width="121.835" height="135.481" fill="#D6D7D8"/> <rect x="267.415" y="512.101" width="272.709" height="10.48" fill="#428DFC"/> <linearGradient id="SVGID_3_mQjKGqxzFaq22_Aa3j6aX" gradientUnits="userSpaceOnUse" x1="1361.9219" y1="-2771.7815" x2="6713.4741" y2="-2771.7815" gradientTransform="matrix(0.1 0 0 -0.1 0 18)">  <stop offset="0" stop-color="#EEEEEE"/>  <stop offset="1" stop-color="#D6D7D8"/> </linearGradient> <rect x="136.192" y="121.924" width="535.155" height="346.508" fill="url(#SVGID_3_mQjKGqxzFaq22_Aa3j6aX)"/> <rect x="145.581" y="130.549" width="516.378" height="285.372" fill="#FFFFFF"/> <g>     <rect x="379.613" y="437.736" transform="matrix(-0.7071 -0.7071 0.7071 -0.7071 343.4806 1027.6814)" width="9.934" height="9.934" fill="#A1C3FC"/>     <rect x="398.775" y="437.721" transform="matrix(-0.7071 -0.7071 0.7071 -0.7071 376.2033 1041.2053)" width="9.934" height="9.934" fill="#FFFFFF"/>     <rect x="417.938" y="437.751" transform="matrix(-0.7071 -0.7071 0.7071 -0.7071 408.8945 1054.8064)" width="9.934" height="9.934" fill="#1D72D8"/> </g> <path d="M660.539,81.422c0,0.218,0,0.437,0,0.655c0,9.061,7.314,16.376,16.376,16.376  s16.376-7.314,16.376-16.376c0-0.218,0-0.437,0-0.655H660.539z" fill="#D3E3FE"/> <path d="M719.164,41.574c0,0.328,0,0.764,0,1.092c0,14.956,12.118,27.074,27.074,27.074  s27.074-12.118,27.074-27.074c0-0.328,0-0.764,0-1.092C773.313,41.574,719.164,41.574,719.164,41.574z" fill="#A1C3FC"/> <path d="M32.698,13.19c0,0.655,0,1.201,0,1.856c0,25.218,20.524,45.743,45.743,45.743  s45.743-20.524,45.743-45.743c0-0.655,0-1.201,0-1.856C124.183,13.19,32.698,13.19,32.698,13.19z" fill="#F4F4F4"/> <path d="M80.624,13.19c0,0.437,0,0.873,0,1.31c0,18.341,14.847,33.188,33.188,33.188S147,32.841,147,14.5  c0-0.437,0-0.873,0-1.31C147,13.19,80.624,13.19,80.624,13.19z" fill="#E7EFFE"/> <g>     <linearGradient id="SVGID_4_mQjKGqxzFaq22_Aa3j6aX" gradientUnits="userSpaceOnUse" x1="4547.144" y1="-2848.5498" x2="5952.8911" y2="-2848.5498" gradientTransform="matrix(-0.0964 0.0265 -0.0265 -0.0964 553.6074 -2.2324)">   <stop offset="0" stop-color="#B9D3FD"/>   <stop offset="1" stop-color="#89B3F4"/>  </linearGradient>  <path d="M61.41,450.31c-0.218,4.803,2.729,9.17,6.114,12.664c9.17,9.716,21.507,16.376,34.607,18.559   c7.314,1.201,14.847,1.201,22.271,2.074c21.616,2.729,41.812,14.52,54.804,31.987c-6.004-12.991-2.511-28.384,3.166-41.485   c5.677-13.1,13.428-25.546,16.157-39.52c2.402-12.009-1.856-27.839-13.974-29.913c-8.952-1.528-17.686,5.349-26.638,4.039   c-3.166-0.437-6.55-2.293-7.205-5.459c-1.747-7.969,13.974-11.681,12.118-19.651c-2.074-9.17-25.109,0-24.345-9.28   c0.328-3.93,5.022-6.332,5.895-10.262s-0.546-8.624-4.258-10.153c-4.804-2.074-10.044,2.074-15.284,2.293   c-6.004,0.328-11.135-4.476-13.865-9.825s-3.712-11.463-6.114-16.921c-5.895-13.537-20.742-22.598-35.481-21.725   c-14.738,0.873-28.384,11.681-32.642,25.873c-1.747,5.786-1.638,12.991,3.057,16.921c3.93,3.275,10.808,4.148,11.681,9.17   c1.201,6.878-11.026,10.917-9.389,17.686c1.856,7.969,18.122,3.493,19.76,11.463c0.764,3.603-2.402,6.659-3.821,9.935   c-2.838,6.223,1.31,14.52,7.969,16.157c2.62,0.655,5.568,0.327,7.969,1.638c5.895,3.275,3.603,12.555-0.983,17.467   C68.179,439.065,61.847,443.541,61.41,450.31z" fill="url(#SVGID_4_mQjKGqxzFaq22_Aa3j6aX)"/>     <linearGradient id="SVGID_5_mQjKGqxzFaq22_Aa3j6aX" gradientUnits="userSpaceOnUse" x1="5005.2349" y1="-3177.0505" x2="6471.7524" y2="-3177.0505" gradientTransform="matrix(-0.0964 0.0265 -0.0265 -0.0964 553.6074 -2.2324)">   <stop offset="0" stop-color="#DEEAFE"/>   <stop offset="1" stop-color="#E9F1FE"/>  </linearGradient>  <path d="M102.458,439.72c-3.821-0.873-7.751-1.638-11.135-3.712   c-7.096-4.476-9.17-13.537-11.79-21.397c-2.62-7.86-8.079-16.594-16.376-16.594c-6.987,0-14.083,6.223-20.087,2.838   c-2.293-1.31-3.712-3.603-5.568-5.349c-7.969-7.642-22.38-2.948-28.384,6.332s-6.004,21.179-5.895,32.315   c0.109,4.039,1.419,9.389,5.459,9.389c3.821,0,6.223-5.459,10.044-5.022c3.057,0.327,4.367,4.258,4.148,7.314   c-0.218,3.057-1.092,6.332,0.328,9.061c2.729,5.24,10.699,3.384,15.721,0.327c5.022-3.057,11.79-6.441,16.266-2.511   c-0.437,12.118,0.328,26.528,10.59,33.079c11.79,7.533,28.166,1.965,41.922-0.437c25.655-4.585,48.69,9.716,68.45,26.747   C167.088,476.948,137.611,447.908,102.458,439.72z" fill="url(#SVGID_5_mQjKGqxzFaq22_Aa3j6aX)"/>  <path d="M178.878,517.232   c-8.734-22.817-15.721-46.288-21.07-70.088" fill="none" stroke="#428DFC"/>     <ellipse transform="matrix(-0.2235 -0.9747 0.9747 -0.2235 -240.659 697.7426)" cx="157.599" cy="444.732" rx="4.694" ry="12.445" fill="#23286B"/>  <path d="M157.153,444.305   c-2.948-13.537-5.349-27.074-7.205-40.83" fill="none" stroke="#428DFC"/>     <ellipse transform="matrix(-0.3174 -0.9483 0.9483 -0.3174 -182.6591 669.1458)" cx="149.504" cy="400.314" rx="5.568" ry="14.957" fill="#23286B"/>  <path d="M149.402,399.873   c-1.419-11.354-2.511-22.708-3.275-34.061" fill="none" stroke="#428DFC"/>     <ellipse transform="matrix(-0.0106 -0.9999 0.9999 -0.0106 -213.3985 512.5897)" cx="146.883" cy="361.865" rx="5.567" ry="14.956" fill="#23286B"/>  <path d="M145.908,361.008   c-0.437-8.624-0.655-17.358-0.764-26.092" fill="none" stroke="#428DFC"/>     <ellipse transform="matrix(-0.0106 -0.9999 0.9999 -0.0106 -183.616 479.1787)" cx="145.246" cy="330.426" rx="7.532" ry="20.087" fill="#23286B"/>  <path d="M145.144,329.021   c0.109-5.786,0.218-11.572,0.437-17.358" fill="none" stroke="#428DFC"/> </g> <path d="M132.808,484.917l4.367-12.009c1.528-0.109,3.166,0.109,4.694,0.655l-4.694,12.882  c-0.218,0.764,0.109,1.528,0.873,1.747s1.528-0.109,1.747-0.873l4.694-12.664c1.419,0.873,2.62,2.074,3.603,3.384l-3.93,10.699  c-0.218,0.764,0.109,1.528,0.873,1.747s1.528-0.109,1.747-0.873l3.057-8.406c1.747,4.367,1.856,9.935-0.109,15.393  c0,0.109-0.109,0.218-0.109,0.328c0.983,0.546,2.074,1.201,2.948,1.965c2.729,1.965,6.223,5.349,7.424,10.153l-1.31,0.328  c-1.092-4.367-4.367-7.533-6.878-9.28c-0.873-0.655-1.747-1.201-2.729-1.747c-2.074,4.585-5.459,8.297-9.17,10.262l2.948-7.969  c0.218-0.764-0.109-1.528-0.873-1.747c-0.764-0.218-1.528,0.109-1.747,0.873l-3.821,10.262c-1.638,0.437-3.275,0.546-4.913,0.218  l4.367-12.009c0.218-0.764-0.109-1.528-0.873-1.747s-1.528,0.109-1.747,0.873l-4.476,12.118c-1.419-0.655-2.729-1.638-3.821-2.729  l4.039-10.917c0.218-0.764-0.109-1.528-0.873-1.747c-0.764-0.218-1.528,0.109-1.747,0.873l-3.493,9.389  c-1.092-1.638-2.074-3.384-2.948-5.24l2.183-5.895c0.218-0.764-0.109-1.528-0.873-1.747s-1.528,0.109-1.747,0.873l-1.201,3.166  c-2.183-5.24-3.603-10.371-5.459-12.009c3.057-0.655,7.314-3.493,12.009-6.114l-1.528,4.039c-0.218,0.764,0.109,1.528,0.873,1.747  s1.528-0.109,1.747-0.873l2.511-6.878c1.856-0.873,3.712-1.528,5.568-1.965l-3.821,10.59c-0.218,0.764,0.109,1.528,0.873,1.747  C131.716,486.009,132.48,485.681,132.808,484.917z" fill="#FFFFFF"/> <path d="M109.555,136.007l-8.188-0.983c-0.764,0.109-1.528,0.109-2.293,0.328l12.773,1.419  C110.974,136.553,110.319,136.225,109.555,136.007z M114.576,138.3l-18.559-2.074c-0.437,0.109-0.764,0.328-1.201,0.437  l20.742,2.402C115.231,138.736,114.904,138.518,114.576,138.3z M117.087,140.265l-24.236-2.729  c-0.328,0.109-0.546,0.328-0.873,0.437l25.546,2.948C117.415,140.592,117.196,140.483,117.087,140.265z M118.288,142.121  l-27.839-3.166c-0.218,0.109-0.437,0.328-0.655,0.437l28.712,3.275C118.507,142.448,118.397,142.23,118.288,142.121z   M118.943,143.867l-30.349-3.493c-0.218,0.109-0.328,0.328-0.546,0.546l31.005,3.493  C118.943,144.195,118.943,143.977,118.943,143.867z M119.162,145.505l-32.205-3.712c-0.109,0.218-0.328,0.328-0.437,0.546  l32.642,3.712C119.162,145.942,119.162,145.723,119.162,145.505z M119.162,147.252l-33.515-3.821  c-0.109,0.218-0.218,0.328-0.437,0.546l33.843,3.93C119.162,147.579,119.162,147.47,119.162,147.252z M119.052,148.889l-34.498-3.93  c-0.109,0.218-0.218,0.328-0.328,0.546l34.825,3.93C119.052,149.326,119.052,149.108,119.052,148.889z M118.507,150.745  c0-0.109,0.109-0.109,0.109-0.218l-35.044-4.039c-0.109,0.218-0.218,0.328-0.328,0.546l34.935,4.039  C118.288,150.964,118.397,150.854,118.507,150.745z M115.996,152.164c0.109,0,0.218-0.109,0.328-0.109l-33.625-3.821  c-0.109,0.218-0.109,0.328-0.218,0.546l32.751,3.712C115.559,152.383,115.777,152.274,115.996,152.164z M113.703,153.365  l-31.441-3.603c-0.109,0.218-0.109,0.328-0.109,0.546l31.005,3.493C113.266,153.693,113.485,153.584,113.703,153.365z   M111.956,154.894l-30.24-3.493c0,0.218-0.109,0.328-0.109,0.546l29.804,3.384C111.738,155.221,111.847,155.003,111.956,154.894z   M110.755,156.422l-29.258-3.384c0,0.218,0,0.328-0.109,0.546l28.93,3.275C110.537,156.75,110.646,156.64,110.755,156.422z   M109.882,158.06l-28.494-3.275c0,0.218,0,0.328,0,0.546l28.275,3.275C109.664,158.387,109.773,158.169,109.882,158.06z   M109.227,159.697l-27.729-3.166c0,0.218,0,0.328,0,0.546l27.511,3.166C109.118,160.025,109.227,159.806,109.227,159.697z   M108.899,161.335l-27.074-3.057c0,0.218,0.109,0.437,0.109,0.546l26.965,3.057C108.899,161.662,108.899,161.444,108.899,161.335z   M82.589,160.571l26.31,3.057c0-0.218,0-0.328,0-0.546l-26.529-3.057C82.371,160.134,82.48,160.352,82.589,160.571z M83.463,162.317  l25.655,2.948c0-0.218-0.109-0.437-0.109-0.546l-25.873-2.948C83.244,161.881,83.354,162.099,83.463,162.317z M84.773,164.173  l24.454,2.838c0-0.218,0-0.328,0-0.546l-25-2.838C84.445,163.737,84.554,163.955,84.773,164.173z M86.629,166.029  c0.109,0,0.109,0.109,0.218,0.109l21.616,2.511c0.109-0.109,0.218-0.328,0.328-0.546l-22.817-2.62  C86.192,165.592,86.41,165.811,86.629,166.029z M91.323,168.322l13.974,1.638c0.546-0.109,1.092-0.218,1.638-0.328l-17.686-2.074  C89.904,167.776,90.668,168.103,91.323,168.322z" fill="#B3C9EE"/> <path d="M687.068,497.253l12.773,0.546c1.201-0.218,2.402-0.328,3.493-0.764l-19.978-0.655  C684.775,496.598,685.867,497.035,687.068,497.253z M678.989,494.306l29.039,0.983c0.655-0.218,1.092-0.546,1.856-0.873  l-32.424-1.201C678.007,493.76,678.443,494.087,678.989,494.306z M674.95,491.576l37.882,1.31c0.546-0.218,0.764-0.546,1.31-0.764  l-39.956-1.528C674.404,491.14,674.732,491.249,674.95,491.576z M672.767,488.847l43.559,1.528c0.327-0.218,0.655-0.546,0.983-0.764  l-44.869-1.638C672.439,488.41,672.657,488.738,672.767,488.847z M671.566,486.227l47.489,1.747  c0.328-0.218,0.437-0.546,0.764-0.873l-48.472-1.747C671.566,485.681,671.566,486.009,671.566,486.227z M671.02,483.716  l50.328,1.856c0.109-0.328,0.437-0.546,0.655-0.873l-51.092-1.856C671.02,483.061,671.02,483.389,671.02,483.716z M670.802,480.987  l52.402,1.965c0.109-0.328,0.327-0.546,0.655-0.873l-52.948-2.074C670.802,480.55,670.802,480.659,670.802,480.987z   M670.802,478.476l53.93,1.965c0.109-0.328,0.328-0.546,0.437-0.873l-54.476-1.965C670.802,477.821,670.802,478.148,670.802,478.476  z M671.457,475.528c0,0.218-0.109,0.218-0.109,0.328l54.804,2.074c0.109-0.327,0.328-0.546,0.437-0.873l-54.585-2.074  C671.784,475.201,671.566,475.31,671.457,475.528z M675.168,473.017c-0.218,0-0.328,0.218-0.546,0.218l52.62,1.856  c0.109-0.327,0.109-0.546,0.328-0.873l-51.201-1.856C675.823,472.581,675.496,472.799,675.168,473.017z M678.553,470.834  l49.127,1.856c0.109-0.328,0.109-0.546,0.109-0.873l-48.472-1.747C679.208,470.288,678.88,470.506,678.553,470.834z   M681.064,468.323l47.271,1.747c0-0.328,0.109-0.546,0.109-0.873l-46.616-1.638C681.391,467.777,681.282,468.105,681.064,468.323z   M682.81,465.812l45.743,1.747c0-0.327,0-0.546,0.109-0.873l-45.197-1.638C683.029,465.266,682.919,465.485,682.81,465.812z   M683.902,463.192l44.542,1.638c0-0.327,0-0.546-0.109-0.873l-44.214-1.747C684.23,462.646,684.12,462.974,683.902,463.192z   M684.775,460.572l43.341,1.638c0-0.327,0-0.546-0.109-0.873l-43.013-1.638C684.885,460.026,684.775,460.354,684.775,460.572z   M685.103,457.952l42.358,1.528c0-0.327-0.218-0.655-0.218-0.873l-42.14-1.528C684.994,457.406,685.103,457.733,685.103,457.952z   M725.933,455.987l-41.157-1.638c0,0.328,0,0.546,0.109,0.873l41.485,1.528C726.37,456.642,726.151,456.314,725.933,455.987z   M724.404,453.367l-40.066-1.528c0,0.327,0.218,0.655,0.218,0.873l40.502,1.528C724.732,454.022,724.623,453.694,724.404,453.367z   M722.112,450.637l-38.21-1.528c0,0.328,0,0.546,0.109,0.873l39.083,1.419C722.658,451.292,722.439,450.965,722.112,450.637z   M719.055,448.017c-0.218,0-0.218-0.109-0.328-0.109l-33.843-1.31c-0.109,0.218-0.327,0.546-0.437,0.873l35.699,1.31  C719.71,448.672,719.383,448.345,719.055,448.017z M711.522,445.07l-21.834-0.873c-0.873,0.218-1.638,0.437-2.511,0.655l27.62,1.092  C713.706,445.725,712.505,445.288,711.522,445.07z" fill="#B3C9EE"/> </g><g transform="translate(275.44000000000005 136.15499999999997) scale(2.4523015594444164 2.4226006191950464)" ><defs>
    <clipPath id="clipPath_mEepDpXh9RUUhaNqYwF1H">
    <rect x="0" y="0" width="159.544" height="49.419" />
    </clipPath></defs> <path fill="rgb(27,42,111)" d="M46.341,28.339c0-0.015-0.001-0.031-0.001-0.046c-0.021-2.154,2.123-1.69,3.771-1.546  c0.482,0.042,0.976,0.111,1.394,0.354c0.418,0.243,0.744,0.701,0.697,1.182c-0.047,0.481-0.453,0.865-0.906,1.034  c-0.453,0.168-0.949,0.162-1.432,0.154c-0.766-0.013-1.531-0.026-2.297-0.038c-0.226-0.004-0.459-0.009-0.664-0.104  C46.541,29.16,46.35,28.739,46.341,28.339z M51.025,33.122c-0.672-0.173-1.38-0.113-2.07-0.034c-0.604,0.07-2.131-0.169-2.531,0.341  c-0.324,0.414-0.033,1.379,0.021,1.851c0.086,0.747,0.051,1.131,0.816,1.252c0.896,0.142,1.803,0.009,2.7-0.042  c0.708-0.04,1.473,0.131,2.067-0.322c0.043-0.033,0.086-0.069,0.127-0.109c0.431-0.417,0.595-1.089,0.403-1.657  C52.336,33.744,51.697,33.295,51.025,33.122z M64.739,37.734c-0.348,0.289-0.508,0.742-0.64,1.175  c-0.132,0.433-0.263,0.888-0.578,1.214c-0.029,0.03-0.072,0.058-0.119,0.086h10.417c-0.161-0.113-0.299-0.256-0.397-0.443  c-0.281-0.537-0.132-1.251-0.506-1.728c-0.341-0.435-0.969-0.489-1.522-0.506c-1.651-0.053-3.302-0.106-4.953-0.159  C65.848,37.354,65.196,37.354,64.739,37.734z M67.315,33.263h1.55l1.156,0.074l0.32-0.098l0.197-0.197l0.074-0.246l-0.099-0.32  l-0.541-1.673l-0.123-0.369l-0.492-1.451l-0.123-0.32l-0.246-0.172l-0.32-0.074l-0.271,0.074l-0.246,0.246l-0.664,1.673  l-0.148,0.369l-0.64,1.648l-0.074,0.369l0.074,0.295l0.271,0.123L67.315,33.263z M52.783,40.209h5.893  c-0.053-0.047-0.094-0.099-0.119-0.155l0.025-0.32l0.049-0.197C59.77,36.5,61.1,33.541,62.464,30.6  c0.684-1.474,1.377-2.942,2.061-4.416c0.232-0.5,0.402-1.262,0.665-1.942h-9.784c0.548,0.446,1.013,0.981,1.334,1.614  c0.486,0.957,0.571,2.134,0.22,3.149c-0.217,0.626-1.543,1.672-1.33,2.241c0.994,1.103,1.795,2.396,1.923,3.768  c0.079,0.849-0.099,1.727-0.649,2.61C56.016,39.051,54.457,39.838,52.783,40.209z M93.679,40.209  c-0.261-0.235-0.488-0.514-0.704-0.794c-2.067-2.665-4.134-5.331-6.201-7.996c-0.059,2.788-0.119,5.576-0.178,8.365  c-0.003,0.141-0.012,0.289-0.047,0.425H93.679z M86.985,24.242c0.617,0.612,1.145,1.32,1.664,2.022c1.368,1.85,2.736,3.7,4.104,5.55  c0.078,0.106,0.181,0.223,0.312,0.208c0.185-0.021,0.23-0.268,0.225-0.454c-0.059-2.349-0.118-4.698-0.177-7.046  c-0.002-0.091,0-0.186,0.001-0.28H86.985z M78.708,40.209h2.802c-0.189-0.718,0.043-2.328,0.045-2.739  c0.008-1.454,0.016-2.908,0.025-4.363c0.016-2.908,0.033-5.817,0.049-8.725c0-0.046,0.005-0.092,0.006-0.139h-9.463  c0.177,0.542,0.305,1.12,0.507,1.579c0.654,1.484,1.308,2.968,1.962,4.451c0.969,2.198,1.981,4.376,2.951,6.573  c0.245,0.555,1.218,2.088,1.289,2.884c0.009,0.101,0.003,0.191-0.021,0.265C78.832,40.079,78.774,40.146,78.708,40.209z   M112.122,40.209c-2.247-0.947-3.083-3.925-5.165-5.3c-0.056,1.523-0.112,3.046-0.168,4.569c-0.009,0.256-0.038,0.532-0.185,0.731  H112.122z M113.804,27.275c-0.638,0.746-1.277,1.492-1.915,2.238c-0.435,0.508-1.54,1.312-1.349,2.058  c0.213,0.836,1.376,1.804,1.937,2.432c1.194,1.337,2.389,2.674,3.583,4.012V24.584c-0.153,0.209-0.275,0.378-0.34,0.453  C115.081,25.783,114.443,26.529,113.804,27.275z M101.863,40.209c-0.147-0.19-0.161-0.458-0.16-0.704  c0.023-2.95,0.045-5.901,0.068-8.851c0.005-0.684-0.144-4.292,0.009-6.412h-3.525c0,0.83,0.001,1.66,0.001,2.49  c0.001,3.993,0.002,7.986,0.004,11.979c0,0.523-0.016,1.092-0.345,1.497H101.863z M109.66,25.021  c0.177-0.257,0.357-0.521,0.543-0.779h-3.408c0.026,1.306,0.053,2.612,0.079,3.919C107.927,27.234,108.865,26.177,109.66,25.021z"/> <rect x="18.105" y="44.753" fill="rgb(27,42,111)" width="123.333" height="4.667"/> <g>  <polygon fill="rgb(27,42,111)" points="157.449,41.355 79.772,5.506 2.095,41.355 0,36.816 79.772,0 159.544,36.816  "/> </g> </g><g transform="rotate(33.44925558591231 472.23875 353.29875)"><g transform="translate(323.955 205.015) scale(1.4828375 1.4828375)" ><defs>
    <clipPath id="clipPath_rVdEKNgobWs1kEmHG4jtc">
    <rect x="0" y="0" width="200" height="200" />
    </clipPath></defs> <path id="otlined_squarerVdEKNgobWs1kEmHG4jtc" d="M200,120.144L79.856,200L0,79.856L120.144,0L200,120.144z M82.125,188.746  l106.621-70.868L117.878,11.257L11.256,82.125L82.125,188.746z" fill="rgb(50,50,50)"/> </g></g><g transform="translate(1000.5711757414816 183.89844109675164) scale(0.5226490319543341 0.5225826733689296)" ><defs>
    <clipPath id="clipPath_lcP_aoyxHFxsyDLz-d6wL">
    <rect x="-1212.245" y="197.632" width="339.86" height="306.961" />
    </clipPath></defs> <path fill="#151A4F" d="M-1002.112,203.625c3.471-0.803,7.033-1.611,10.566-1.158c5.284,0.678,9.791,4.068,13.778,7.601  c4.892,4.336,9.455,9.109,13.029,14.581c8.494,13.013,10.859,29.173,10.329,44.701c-0.53,15.527-3.721,30.83-5.417,46.275  c-1.758,16.002-1.91,32.181-0.45,48.212c-35.705-5.122-72.306-3.966-107.616,3.402c23.314-33.859,37.04-76.207,28.828-116.482  c-2.436-11.949-6.207-26.044,2.034-35.035c4.515-4.926,11.443-6.666,17.952-8.172  C-1013.423,206.242-1007.768,204.934-1002.112,203.625z"/> <path fill="#F2A19C" d="M-1000.139,267.625c-0.34,0.045-0.69,0.095-0.986,0.296c-0.925,0.628-0.811,2.226-0.591,3.464  c3.95,22.197,2.357,45.743-4.527,66.905c12.896-9.588,29.981-0.038,44.852-3.845c-4.263-9.79-3.288-21.452-3.239-32.475  c0.058-12.976,2.79-30.425,0.012-42.976C-975.086,260.384-989.671,266.237-1000.139,267.625z"/> <path fill="#FFBEB6" d="M-1025.26,228.668c-1.092,11.345,1.567,21.186,5.906,31.728c5.042,12.25,14.233,23.449,26.77,27.748  c12.537,4.299,25.485,2.673,31.619-9.071c2.531-4.846,3.745-12.787,3.653-18.251c-0.252-14.993-3.798-30.664-14.755-40.907  c-6.501-6.078-13.269-14.681-22.137-15.44c-8.869-0.759-21.359,3.198-26.437,10.505  C-1024.799,220.961-1024.561,221.418-1025.26,228.668z"/> <path fill="#FFFFFF" d="M-973.283,266.324c-1.774,1.979-4.346,3.046-6.902,3.776c-3.96,1.129-8.183,1.595-12.207,0.722  c-4.024-0.873-7.831-3.196-9.953-6.723c2.43,0.38,4.913,0.425,7.356,0.133c11.769-1.409,21.199-10.283,28.603-19.535  c-0.423,4.823-0.981,7.952-2.175,12.621C-969.255,260.028-971.417,264.239-973.283,266.324z"/> <path fill="#E94A47" d="M-1036.727,247.891c12.122-19.619,32.983-33.615,55.742-37.396c3.842,3.45,7.683,6.901,11.525,10.35  c-25.684,3.526-46.99,21.843-62.903,42.3c-3.192-4.5-6.5-10.315-3.88-15.171C-1037.363,255.678-1033.951,240.621-1036.727,247.891z"/> <path fill="#23286B" d="M-1030.681,379.174c9.967-41.676,8.399-49.767,8.168-92.616c-0.052-9.533,4.109-47.912,10.958-59.547  c9.605-16.317,18.248-19.024,27.251-22.173c-21.231-17.796-47.511,1.624-53.729,12.602c-6.218,10.978-7.088,24.07-8.018,36.653  c-3.075,41.605-8.35,83.049-15.796,124.098C-1051.452,377.88-1041.038,378.21-1030.681,379.174z"/> <g>  <path fill="#23286B" d="M-1016.03,274.927c-0.001,0-0.003,0-0.004,0c-0.378-0.003-0.683-0.313-0.681-0.689   c0.096-14.689,3.155-28.514,9.917-44.824c4.265-10.285,13.617-21.321,19.129-24.318c0.332-0.179,0.748-0.057,0.929,0.274   c0.181,0.332,0.058,0.749-0.276,0.93c-5.202,2.828-14.424,13.771-18.517,23.64c-6.691,16.138-9.717,29.804-9.813,44.307   C-1015.348,274.623-1015.653,274.927-1016.03,274.927z"/> </g> <g>  <path fill="#23286B" d="M-1011.134,268.819c-0.03,0-0.061-0.001-0.092-0.007c-0.376-0.049-0.638-0.394-0.588-0.769   c3.012-22.44,12.941-46.551,25.912-62.929c0.236-0.293,0.666-0.347,0.963-0.111c0.296,0.234,0.347,0.664,0.112,0.961   c-12.829,16.194-22.649,40.051-25.629,62.259C-1010.501,268.568-1010.796,268.819-1011.134,268.819z"/> </g> <g>  <path fill="#23286B" d="M-1069.866,376.449c-0.013,0-0.029,0-0.042-0.001c-0.378-0.025-0.665-0.349-0.641-0.726   c2.688-43.24,8.564-80.717,19.647-125.318l0.263-1.062c2.655-10.708,6.665-26.891,14.39-34.083   c0.277-0.257,0.712-0.243,0.968,0.034c0.257,0.277,0.243,0.711-0.034,0.968c-7.427,6.915-11.38,22.859-13.994,33.409l-0.263,1.062   c-11.063,44.517-16.929,81.922-19.61,125.074C-1069.205,376.17-1069.506,376.449-1069.866,376.449z"/> </g> <path fill="#FFFFFF" d="M-955.179,311.544c-0.402,7.65-0.806,15.297-1.209,22.947c-0.017,0.326-0.067,0.707-0.353,0.865  c-0.179,0.099-0.398,0.074-0.603,0.046c-7.978-1.063-12.607,36.132-20.655,36.026c-8.521-0.112-20.464-37.469-28.931-36.51  c0.021-4.617,0.04-9.234,0.061-13.852c0.007-1.642-0.177-5.943-0.177-5.943s2.125-2.037,3.627-2.727  c5.153-2.369,10.367,5.972,15.775,4.258c2.895-0.917,4.468-4.467,7.45-5.042c4.19-0.809,6.909,4.575,10.984,5.839  c2.511,0.778,5.255-0.136,7.503-1.495C-959.459,314.597-957.491,312.797-955.179,311.544z"/> <linearGradient id="SVGID_1_lcP_aoyxHFxsyDLz-d6wL" gradientUnits="userSpaceOnUse" x1="-4846.1631" y1="-1550.5765" x2="-4347.6084" y2="-1550.5765" gradientTransform="matrix(0.2543 0 0 -0.2543 20.1339 -22.5246)">  <stop offset="0" stop-color="#FFBEB6"/>  <stop offset="1" stop-color="#F2A19C"/> </linearGradient> <path fill="url(#SVGID_1_lcP_aoyxHFxsyDLz-d6wL)" d="M-1134.233,313.295c-3.391-13.494-8.903-14.031-18.833-23.956c-1.604-1.603-3.34-4.121-5.136-2.737  c-1.753,4.939,10.615,13.346,11.694,24.888c-16.182-9.352-40.269-13.881-54.839-12.91c-5.136,0.342,3.767,4.448,15.409,6.161  c10.628,1.562,17.121,5.818,26.659,10.738c0.563,1.629-5.806-1.096-7.482-1.497c-15.891-3.811-27.052-6.844-43.975-8.124  c-4.992,0.594,3.614,9.081,8.191,10.861c11.377,4.422,24.138,7.734,35.515,12.156c-2.985,5.468-32.947-13.011-27.05-5.69  c10.483,11.778,26.436,18.479,42.189,17.719c2.597-0.124,5.292-0.427,7.724,0.488c2.858,1.076,5.528,3.868,6.342,6.81  c11.679,42.288,24.503,82.304,34.414,109.17c2.912-4.049,13.319-41.633,17.948-43.493c-8.949-24.223-25.403-36.893-34.043-61.228  c-3.767-10.609-8.528-18.46-11.642-26.351C-1131.82,324.612-1134.861,311.591-1134.233,313.295z"/> <g>  <path fill="#23286B" d="M-980.986,233.472c-0.367,0-0.671-0.292-0.683-0.66c-0.013-0.377,0.284-0.695,0.661-0.71   c9.078-0.314,17.429-8.217,18.231-17.26c0.033-0.375,0.381-0.641,0.743-0.621c0.377,0.033,0.656,0.367,0.621,0.742   c-0.876,9.866-9.644,18.168-19.547,18.509C-980.969,233.472-980.978,233.472-980.986,233.472z"/> </g> <linearGradient id="SVGID_2_lcP_aoyxHFxsyDLz-d6wL" gradientUnits="userSpaceOnUse" x1="-1083.208" y1="416.8916" x2="-872.3853" y2="416.8916">  <stop offset="0" stop-color="#428DFC"/>  <stop offset="1" stop-color="#1D72D8"/> </linearGradient> <path fill="url(#SVGID_2_lcP_aoyxHFxsyDLz-d6wL)" d="M-878.236,504.593c7.276-33.566,8.264-82.333,0.129-113.448c-2.993-11.446-7.186-22.96-15.156-31.708  c-5.442-5.974-12.392-10.368-19.52-14.179c-13.598-7.272-28.186-12.693-43.235-16.067c-6.947,11.588-13.892,23.176-20.838,34.764  c-7.461-9.179-29.907-33.594-29.907-33.594s-45.486,13.003-57.713,29.909c-14.242,19.693-17.429,45.125-18.661,69.393  c-1.019,20.088,9.177,50.838,14.059,74.93H-878.236z"/> <linearGradient id="SVGID_3_lcP_aoyxHFxsyDLz-d6wL" gradientUnits="userSpaceOnUse" x1="-1118.1112" y1="511.3062" x2="-1088.7813" y2="379.3214">  <stop offset="0" stop-color="#428DFC"/>  <stop offset="1" stop-color="#1D72D8"/> </linearGradient> <path fill="url(#SVGID_3_lcP_aoyxHFxsyDLz-d6wL)" d="M-1050.677,504.593c1.111-8.187,1.589-16.697,1.139-19.273  c-3.443-19.697-17.699-43.197-27.395-60.687c-18.72-33.766-21.248-46.314-41.068-76.797c-9.439,7.18-20.845,11.749-32.63,13.075  c20.049,49.415,43.489,97.456,70.081,143.682H-1050.677z"/> </g><g transform="rotate(90 171.3675 433.89625)"><g transform="translate(131.46 413.9425) scale(0.79815 0.79815)" ><defs>
    <clipPath id="clipPath_erEoAVqWrIH9EQJuaYoxa">
    <rect x="0" y="0" width="100" height="50" />
    </clipPath></defs> <path fill="#A1C3FC" d="M98.662,45.744c-33.052,0.839-65.544,0.835-97.485,0c-1.46-14.776-1.676-28.797,0-41.669  c32.496-0.595,64.991-0.595,97.485,0C100.511,17.53,100.38,31.45,98.662,45.744z"/> </g></g><g transform="translate(148.67499999999998 234.75000000000003) scale(0.8285294117647058 0.82945)" ><defs>
    <clipPath id="clipPath_UBWZBT20yRPqIXo7vSscG">
    <rect x="0" y="0" width="238" height="450" />
    </clipPath></defs> <linearGradient id="L_hand_1_UBWZBT20yRPqIXo7vSscG" gradientUnits="userSpaceOnUse" x1="-2688.3562" y1="6119.542" x2="-1547.7419" y2="5753.5962" gradientTransform="matrix(-0.0622 0.0403 0.0403 0.0622 -220.2673 -122.9462)">  <stop offset="0" stop-color="#FFBEB6"/>  <stop offset="1" stop-color="#F29B94"/> </linearGradient> <path id="L_handUBWZBT20yRPqIXo7vSscG" fill="url(#L_hand_1_UBWZBT20yRPqIXo7vSscG)" d="M142.265,161.943c6.197-1.119,11.717-2.093,15.532-2.878  c15.364-3.136,24.766-4.791,36.943-0.516c12.127,4.198,12.592,4.519,22.073,5.193c9.481,0.673,19.878-11.552,19.51-12.12  s-23.231-0.928-9.985-3.095c13.245-2.166,14.57-11.265,7.194-8.065c-7.35,3.184-21.985,2.184-25.935,1.74  c-4.054-0.379-2.389-3.691,4.727-7.237c7.166-3.468,6.285-8.905,2.144-5.967c-4.048,3.024-12.246,2.692-21.02,8.373  c-8.774,5.681-21.006,3.528-40.939,4.018c-2.551,0.076-5.244-0.011-7.833-0.165L142.265,161.943z"/> <g id="manUBWZBT20yRPqIXo7vSscG">     <linearGradient id="L_shoe-2_1_UBWZBT20yRPqIXo7vSscG" gradientUnits="userSpaceOnUse" x1="5929.0879" y1="7363.7578" x2="4040.0017" y2="7469.4409" gradientTransform="matrix(0.0741 0 0 0.0741 -230.5491 -118.0138)">   <stop offset="0.1291" stop-color="#428DFC"/>   <stop offset="0.9987" stop-color="#1D72D8"/>  </linearGradient>  <path id="L_shoe-2UBWZBT20yRPqIXo7vSscG" fill="url(#L_shoe-2_1_UBWZBT20yRPqIXo7vSscG)" d="M84.759,414.895l-12.58,35.102L160.992,450c0,0-4.554-8.786-19.734-15.293   c-15.18-6.507-29.35-19.811-29.35-19.811L84.759,414.895"/>  <path id="R_shoe-2UBWZBT20yRPqIXo7vSscG" fill="#428DFC" d="M14.861,414.876L2.28,449.978l88.812,0.003c0,0-4.554-8.786-19.734-15.293   c-15.181-6.507-29.35-19.811-29.35-19.811H14.861"/>     <linearGradient id="L_trousers-2_1_UBWZBT20yRPqIXo7vSscG" gradientUnits="userSpaceOnUse" x1="5922.6401" y1="6356.6733" x2="3994.7834" y2="5357.5649" gradientTransform="matrix(0.0741 0 0 0.0741 -230.5491 -118.0138)">   <stop offset="0" stop-color="#23286B"/>   <stop offset="1" stop-color="#151A4F"/>  </linearGradient>  <path id="L_trousers-2UBWZBT20yRPqIXo7vSscG" fill="url(#L_trousers-2_1_UBWZBT20yRPqIXo7vSscG)" d="M113.623,279.497c-1.525-19.626-6.659-37.5-9.806-55.419   c-0.435-2.472-1.012-4.911-1.337-7.4c-1.553-11.924-6.595-50.427-7.635-55.625l-23.156,2.692l-11.109,1.752l0,0   c0,0-7.878,1.512-13.761,4.613l0,0c-2.273,11.2-2.801,25.102,0.913,41.395c10.704,46.991,11.536,40.392,9.889,73.363   c-1.656,32.971,3.706,21.843,5.351,56.462c1.647,34.627-9.839,28.679,7.491,73.397l41.439,0.172   C111.906,414.9,115.935,309.249,113.623,279.497z"/>  <path id="R_trousers-2UBWZBT20yRPqIXo7vSscG" fill="#23286B" d="M95.497,231.064c0,0,3.857-64.655,6.121-72.746l-69.905,4.1l-3.836,7.421   c-0.745-0.152,0.688,0.153,0,0c-5.592,20.84-4.881,42.872,2.043,63.309c17.077,51.265,5.342,48.837-0.192,64.35   c-5.564,15.503-8.538,24.986-7.274,39.638C23.74,351.8,5.199,363.247,1.769,382.19c-3.409,18.964-0.841,32.816-0.841,32.816   l41.082-0.132c0,0,47.45-107.398,49.727-129.79C93.788,264.914,93.788,257.049,95.497,231.064z"/>  <path id="texture-3UBWZBT20yRPqIXo7vSscG" opacity="0.86" fill="#FFFFFF" enable-background="new    " d="M37.449,170.37   c0.04,0.105,0.157,0.157,0.261,0.117c0.001,0,0.001,0,0.002-0.001c0.1-0.043,0.147-0.159,0.102-0.259   c-0.001-0.002-0.002-0.004-0.002-0.005c-0.04-0.105-0.157-0.157-0.261-0.117c-0.001,0-0.001,0-0.002,0.001   C37.453,170.153,37.409,170.268,37.449,170.37z M41.938,168.51c0.04,0.105,0.158,0.157,0.262,0.117c0.001,0,0.001,0,0.002-0.001   c0.105-0.042,0.156-0.161,0.115-0.267c-0.04-0.105-0.158-0.157-0.262-0.117c-0.001,0-0.001,0-0.002,0.001   C41.949,168.289,41.9,168.406,41.938,168.51L41.938,168.51z M46.439,166.65c0.032,0.1,0.138,0.155,0.239,0.122   c0.004-0.001,0.008-0.003,0.012-0.005c0.105-0.042,0.156-0.161,0.115-0.266c-0.04-0.105-0.158-0.157-0.262-0.117   c0,0-0.001,0-0.001,0.001c-0.097,0.036-0.147,0.145-0.111,0.242C46.432,166.635,46.435,166.642,46.439,166.65z M50.928,164.791   c0.04,0.105,0.158,0.157,0.261,0.117c0.001,0,0.001,0,0.002-0.001c0.102-0.049,0.146-0.173,0.096-0.275   c-0.044-0.091-0.148-0.136-0.245-0.108C50.938,164.568,50.886,164.687,50.928,164.791z M55.416,162.933   c0.04,0.105,0.157,0.157,0.261,0.117c0.001,0,0.001,0,0.002-0.001c0.105-0.042,0.156-0.161,0.115-0.267   c-0.04-0.105-0.157-0.157-0.261-0.117c-0.001,0-0.001,0-0.002,0.001C55.425,162.708,55.374,162.828,55.416,162.933L55.416,162.933z    M51.998,185.162c0.1,0.043,0.216-0.003,0.259-0.103c0-0.001,0.001-0.002,0.001-0.003c0.043-0.103-0.004-0.219-0.106-0.263   c-0.1-0.043-0.216,0.003-0.259,0.103c0,0.001-0.001,0.002-0.001,0.003C51.851,185,51.898,185.118,51.998,185.162L51.998,185.162z    M53.862,180.636c0.106,0.041,0.224-0.005,0.274-0.108c0.038-0.105-0.014-0.22-0.118-0.261c-0.091-0.047-0.204-0.009-0.251,0.083   c-0.004,0.007-0.007,0.015-0.01,0.024C53.714,180.475,53.761,180.592,53.862,180.636L53.862,180.636z M55.739,176.109   c0.1,0.043,0.216-0.003,0.259-0.103c0-0.001,0.001-0.002,0.001-0.003c0.049-0.103,0.005-0.224-0.098-0.273   c-0.102-0.049-0.224-0.005-0.273,0.098c-0.003,0.006-0.005,0.013-0.007,0.019C55.583,175.953,55.635,176.068,55.739,176.109   L55.739,176.109z M57.603,171.583c0.1,0.043,0.216-0.003,0.26-0.103c0-0.001,0.001-0.002,0.001-0.003   c0.042-0.107-0.005-0.227-0.108-0.278c-0.1-0.043-0.216,0.003-0.259,0.103c0,0.001-0.001,0.002-0.001,0.003   C57.453,171.412,57.499,171.532,57.603,171.583L57.603,171.583z M72.353,185.139c0.04,0.105,0.158,0.157,0.262,0.117   c0,0,0.001,0,0.001-0.001c0.097-0.036,0.147-0.145,0.111-0.242c-0.003-0.007-0.006-0.015-0.01-0.024   c-0.037-0.103-0.149-0.154-0.25-0.118C72.362,184.915,72.312,185.034,72.353,185.139L72.353,185.139z M37.984,159.619   c0.007,0.111,0.096,0.2,0.207,0.207c0.11-0.004,0.196-0.096,0.191-0.206v-0.001c0.004-0.111-0.083-0.204-0.194-0.209   C38.075,159.414,37.986,159.505,37.984,159.619L37.984,159.619z M42.842,159.641c0.003,0.033,0.011,0.065,0.027,0.094   c0.042,0.06,0.108,0.103,0.18,0.114c0.11-0.004,0.196-0.096,0.191-0.207v-0.001c0.008-0.107-0.072-0.2-0.178-0.209   c-0.005,0-0.011-0.001-0.015-0.001c-0.073,0.005-0.139,0.045-0.177,0.109C42.851,159.571,42.842,159.605,42.842,159.641   L42.842,159.641z M47.701,159.664c0.004,0.11,0.095,0.198,0.206,0.194c0.106,0.008,0.199-0.072,0.207-0.177   c0-0.005,0.001-0.012,0.001-0.018c-0.003-0.113-0.094-0.205-0.207-0.207C47.794,159.462,47.707,159.552,47.701,159.664   L47.701,159.664z M44.998,177.206c0.066,0.077,0.183,0.085,0.26,0.019c0.005-0.005,0.011-0.01,0.015-0.015   c0.077-0.07,0.084-0.189,0.014-0.267c-0.004-0.005-0.008-0.008-0.012-0.012c-0.066-0.077-0.183-0.085-0.26-0.019   c-0.005,0.005-0.011,0.01-0.015,0.015c-0.077,0.07-0.084,0.189-0.014,0.267C44.989,177.199,44.993,177.203,44.998,177.206   L44.998,177.206z M48.439,173.755c0.058,0.061,0.154,0.073,0.223,0.025l0.013-0.002c0.014,0,0.03-0.007,0.039-0.019   c0.047-0.045,0.069-0.11,0.058-0.174c-0.007-0.044-0.027-0.084-0.057-0.118c-0.076-0.077-0.199-0.078-0.276-0.004   c-0.081,0.077-0.084,0.206-0.006,0.287C48.435,173.751,48.437,173.753,48.439,173.755L48.439,173.755z M51.883,170.303   c0.078,0.073,0.2,0.069,0.273-0.009l0.001-0.001c0.077-0.068,0.085-0.187,0.017-0.263c-0.005-0.005-0.009-0.01-0.014-0.014   c-0.066-0.077-0.183-0.085-0.26-0.019c-0.005,0.005-0.011,0.01-0.015,0.015c-0.081,0.077-0.084,0.206-0.006,0.287   C51.879,170.3,51.881,170.302,51.883,170.303L51.883,170.303z M55.323,166.838c0.066,0.077,0.183,0.085,0.26,0.019   c0.005-0.005,0.011-0.01,0.015-0.015c0.081-0.077,0.084-0.206,0.006-0.287c-0.002-0.002-0.004-0.004-0.005-0.005   c-0.076-0.077-0.199-0.078-0.276-0.004c-0.081,0.079-0.083,0.207-0.005,0.288C55.321,166.835,55.322,166.837,55.323,166.838   L55.323,166.838z M62.041,184.481c0.007,0.111,0.096,0.2,0.207,0.207c0.115-0.002,0.207-0.096,0.205-0.211   c-0.002-0.114-0.094-0.205-0.207-0.205C62.136,184.28,62.047,184.369,62.041,184.481L62.041,184.481z M62.05,179.573   c0.004,0.11,0.095,0.198,0.206,0.194c0.106,0.008,0.199-0.072,0.207-0.177c0-0.005,0.001-0.012,0.001-0.018   c-0.003-0.113-0.094-0.205-0.207-0.207C62.144,179.372,62.057,179.461,62.05,179.573L62.05,179.573z M15.632,156.039   c0.013-0.002,0.029,0.01,0.042,0.008c0.205,0.026,0.391-0.12,0.417-0.325c0.001-0.008,0.002-0.016,0.002-0.025   c0.011-0.211-0.148-0.393-0.359-0.409c-0.037-0.006-0.073-0.006-0.11,0.001C15.619,155.541,15.625,155.791,15.632,156.039z    M24.515,156.312c-0.008,0.062,0.005,0.123,0.038,0.175c0.047,0.129,0.168,0.217,0.306,0.221l0.015,0.012   c0.211,0.01,0.391-0.151,0.404-0.362c0.017-0.209-0.136-0.393-0.345-0.411C24.72,155.941,24.538,156.101,24.515,156.312   L24.515,156.312z M33.711,156.971c-0.011,0.211,0.148,0.393,0.359,0.409c0.207,0.016,0.388-0.138,0.406-0.345   c0-0.001,0-0.002,0-0.003c0.011-0.211-0.148-0.393-0.359-0.409c-0.201-0.022-0.382,0.124-0.404,0.325   C33.712,156.956,33.711,156.963,33.711,156.971L33.711,156.971z M25.519,186.339c0.132,0.159,0.368,0.18,0.527,0.049   c0.005-0.004,0.009-0.008,0.013-0.012c0.157-0.138,0.172-0.376,0.036-0.534c-0.132-0.159-0.368-0.18-0.527-0.049   c-0.005,0.004-0.009,0.008-0.013,0.012C25.399,185.944,25.382,186.182,25.519,186.339L25.519,186.339z M32.462,180.248   c0.134,0.159,0.372,0.18,0.531,0.046c0.004-0.003,0.007-0.006,0.011-0.009c0.161-0.137,0.178-0.38,0.04-0.54   c-0.002-0.002-0.004-0.005-0.005-0.006c-0.132-0.156-0.366-0.175-0.522-0.043c-0.002,0.002-0.005,0.004-0.006,0.005   C32.35,179.842,32.331,180.081,32.462,180.248L32.462,180.248z M39.417,174.155c0.14,0.158,0.381,0.174,0.542,0.036   c0.156-0.143,0.172-0.384,0.034-0.546c-0.14-0.157-0.381-0.173-0.542-0.037c-0.161,0.138-0.178,0.38-0.04,0.54   C39.413,174.151,39.415,174.154,39.417,174.155L39.417,174.155z M46.359,168.064c0.106,0.111,0.268,0.149,0.412,0.095   c0.049-0.005,0.094-0.027,0.129-0.059c0.057-0.051,0.096-0.12,0.11-0.196l0.013-0.002c0.049-0.209-0.081-0.418-0.29-0.467   c-0.12-0.029-0.247,0.003-0.34,0.083C46.237,167.661,46.223,167.903,46.359,168.064L46.359,168.064z M53.314,161.959   c0.129,0.161,0.366,0.186,0.526,0.055c0.002-0.001,0.003-0.003,0.005-0.004c0.159-0.141,0.179-0.382,0.047-0.548   c-0.134-0.159-0.372-0.179-0.531-0.046c-0.004,0.003-0.007,0.006-0.01,0.009c-0.157,0.128-0.179,0.36-0.05,0.518   C53.304,161.948,53.308,161.953,53.314,161.959L53.314,161.959z M53.207,209.699c-0.011,0.211,0.148,0.393,0.359,0.409   c0.201,0.022,0.382-0.124,0.404-0.325c0.001-0.007,0.002-0.015,0.002-0.024c0.011-0.211-0.148-0.393-0.359-0.409   c-0.207-0.016-0.388,0.137-0.405,0.345C53.208,209.697,53.208,209.698,53.207,209.699L53.207,209.699z M53.836,200.422   c-0.014,0.21,0.143,0.393,0.355,0.409c0.21,0.014,0.392-0.144,0.409-0.355c0-0.003,0-0.005,0-0.007   c0.017-0.209-0.136-0.393-0.345-0.411C54.04,200.052,53.857,200.211,53.836,200.422L53.836,200.422z M54.475,191.131   c-0.016,0.209,0.138,0.392,0.347,0.409c0.004,0,0.007,0.001,0.011,0.001c0.201,0.022,0.382-0.124,0.404-0.325   c0.001-0.007,0.002-0.015,0.002-0.024c0.007-0.213-0.15-0.397-0.361-0.422C54.668,190.759,54.489,190.92,54.475,191.131   L54.475,191.131z M55.103,181.854c-0.014,0.21,0.144,0.393,0.355,0.408c0.21,0.014,0.392-0.145,0.408-0.355   c0-0.002,0-0.004,0-0.006c0.016-0.21-0.14-0.395-0.352-0.411c-0.21-0.016-0.395,0.14-0.411,0.352   C55.103,181.847,55.103,181.85,55.103,181.854z M55.744,172.563c-0.02,0.207,0.131,0.391,0.338,0.411s0.39-0.131,0.411-0.338   c0.001-0.007,0.001-0.015,0.002-0.024c0.019-0.207-0.133-0.392-0.34-0.411c-0.002,0-0.004,0-0.005-0.001   C55.937,172.191,55.756,172.353,55.744,172.563L55.744,172.563z M21.291,170.298c0.068,0.2,0.285,0.308,0.485,0.24   s0.307-0.285,0.24-0.485c-0.001-0.003-0.002-0.005-0.003-0.008c-0.068-0.2-0.286-0.306-0.485-0.239   c-0.199,0.068-0.306,0.286-0.239,0.485C21.29,170.294,21.29,170.296,21.291,170.298z M30.031,167.351   c0.063,0.2,0.275,0.314,0.475,0.254c0.199-0.073,0.303-0.291,0.235-0.492c-0.064-0.197-0.274-0.305-0.471-0.242   c-0.198,0.064-0.305,0.274-0.242,0.472C30.029,167.346,30.029,167.348,30.031,167.351L30.031,167.351z M38.757,164.419   c0.072,0.198,0.291,0.299,0.489,0.228c0.198-0.072,0.299-0.291,0.228-0.489c-0.071-0.195-0.286-0.297-0.482-0.231   C38.793,164,38.69,164.218,38.757,164.419L38.757,164.419z M47.485,161.486c0.07,0.199,0.287,0.306,0.487,0.239   c0.204-0.068,0.315-0.288,0.248-0.493c-0.07-0.199-0.287-0.306-0.487-0.239C47.532,161.066,47.425,161.283,47.485,161.486   L47.485,161.486z M35.686,200.572c0.181,0.097,0.409,0.029,0.506-0.154c0.003-0.005,0.005-0.01,0.007-0.014   c0.093-0.192,0.013-0.422-0.178-0.516c-0.001-0.001-0.002-0.001-0.004-0.002c-0.183-0.096-0.411-0.027-0.507,0.157   c-0.002,0.004-0.004,0.007-0.005,0.011C35.417,200.248,35.496,200.477,35.686,200.572L35.686,200.572z M39.789,192.246   c0.181,0.097,0.409,0.029,0.505-0.154c0.003-0.005,0.005-0.01,0.007-0.014c0.092-0.191,0.013-0.422-0.178-0.516   c-0.001-0.001-0.003-0.001-0.004-0.002c-0.183-0.096-0.411-0.027-0.507,0.157c-0.002,0.004-0.004,0.007-0.005,0.011   C39.519,191.922,39.599,192.15,39.789,192.246L39.789,192.246z M43.892,183.935c0.192,0.088,0.418,0.007,0.511-0.181   c0.091-0.191,0.017-0.418-0.168-0.519c-0.193-0.091-0.424-0.017-0.526,0.17C43.624,183.602,43.703,183.833,43.892,183.935   L43.892,183.935z M47.994,175.596c0.181,0.097,0.409,0.029,0.506-0.154c0.003-0.005,0.005-0.01,0.007-0.014   c0.09-0.191,0.016-0.418-0.168-0.519c-0.191-0.089-0.419-0.008-0.511,0.181c-0.096,0.178-0.03,0.401,0.149,0.497   C47.981,175.59,47.987,175.593,47.994,175.596L47.994,175.596z M52.097,167.285c0.192,0.088,0.418,0.007,0.511-0.181   c0.091-0.183,0.018-0.404-0.165-0.496c-0.005-0.003-0.01-0.005-0.015-0.007c-0.173-0.095-0.391-0.033-0.487,0.14   c-0.005,0.008-0.009,0.017-0.013,0.026c-0.097,0.19-0.024,0.421,0.166,0.518C52.097,167.284,52.097,167.285,52.097,167.285   L52.097,167.285z M70.641,203.198c0.07,0.199,0.287,0.306,0.487,0.239c0.197-0.066,0.303-0.278,0.237-0.475   c0-0.001-0.001-0.002-0.001-0.003c-0.05-0.196-0.25-0.314-0.445-0.262c-0.01,0.003-0.02,0.005-0.031,0.009   C70.693,202.78,70.586,202.994,70.641,203.198L70.641,203.198z M67.714,194.359c0.073,0.199,0.286,0.308,0.489,0.251   c0.199-0.073,0.303-0.291,0.235-0.492c-0.067-0.199-0.283-0.306-0.483-0.24C67.756,193.946,67.649,194.159,67.714,194.359   L67.714,194.359z M64.787,185.533c0.057,0.194,0.261,0.303,0.455,0.246c0.006-0.002,0.013-0.004,0.019-0.006   c0.201-0.062,0.315-0.275,0.254-0.477c-0.002-0.005-0.004-0.011-0.005-0.016c-0.068-0.2-0.285-0.308-0.485-0.24   c-0.2,0.068-0.307,0.285-0.24,0.485C64.785,185.528,64.786,185.53,64.787,185.533z M61.846,176.695   c0.07,0.199,0.287,0.306,0.487,0.239c0.195-0.06,0.302-0.269,0.242-0.462c-0.002-0.005-0.004-0.01-0.005-0.015   c-0.063-0.2-0.275-0.314-0.475-0.254C61.893,176.273,61.782,176.491,61.846,176.695L61.846,176.695z M16.034,165.799   c0.055-0.075,0.077-0.168,0.06-0.259c-0.015-0.054-0.047-0.103-0.088-0.14C16.023,165.522,16.029,165.66,16.034,165.799   L16.034,165.799z M23.438,163.842c0.038,0.178,0.213,0.291,0.391,0.254c0.005-0.001,0.01-0.002,0.014-0.004   c0.181-0.046,0.291-0.231,0.245-0.411c-0.045-0.179-0.225-0.288-0.405-0.247c-0.178,0.04-0.29,0.217-0.25,0.396   C23.436,163.834,23.437,163.838,23.438,163.842L23.438,163.842z M31.448,161.983c0.032,0.174,0.199,0.289,0.374,0.257   c0.011-0.002,0.022-0.005,0.032-0.007c0.183-0.042,0.295-0.224,0.254-0.407c-0.042-0.182-0.224-0.295-0.407-0.254   c-0.182,0.042-0.295,0.224-0.254,0.407C31.447,161.98,31.447,161.982,31.448,161.983z M39.456,160.124   c0.032,0.174,0.199,0.289,0.374,0.257c0.011-0.002,0.022-0.005,0.032-0.007c0.183-0.045,0.297-0.227,0.26-0.411   c-0.064-0.171-0.239-0.275-0.419-0.248c-0.174,0.035-0.288,0.204-0.254,0.378C39.451,160.104,39.453,160.114,39.456,160.124   L39.456,160.124z M27.704,196.269c0.158,0.099,0.367,0.052,0.466-0.107c0.102-0.155,0.059-0.362-0.094-0.463   c-0.004-0.003-0.008-0.005-0.012-0.007c-0.151-0.101-0.356-0.06-0.456,0.09c-0.004,0.005-0.007,0.011-0.01,0.016   C27.501,195.957,27.548,196.166,27.704,196.269L27.704,196.269z M32.054,189.23c0.158,0.099,0.366,0.051,0.466-0.107   c0.104-0.165,0.055-0.381-0.109-0.485c-0.162-0.094-0.368-0.04-0.465,0.12c-0.102,0.156-0.057,0.365,0.098,0.466   C32.048,189.227,32.051,189.229,32.054,189.23L32.054,189.23z M36.265,181.989c0.013,0.084,0.065,0.16,0.137,0.203   c0.158,0.099,0.366,0.051,0.466-0.107c0.104-0.165,0.055-0.381-0.109-0.485c-0.095-0.062-0.216-0.071-0.32-0.025l-0.013,0.002   c-0.059,0.024-0.109,0.071-0.133,0.129C36.237,181.789,36.226,181.894,36.265,181.989L36.265,181.989z M40.753,175.153   c0.16,0.091,0.362,0.045,0.466-0.107c0.096-0.165,0.049-0.376-0.109-0.485c-0.158-0.099-0.367-0.052-0.466,0.107   C40.54,174.832,40.589,175.049,40.753,175.153L40.753,175.153z M45.102,168.114c0.162,0.094,0.368,0.04,0.465-0.12   c0.096-0.161,0.049-0.368-0.107-0.473c-0.164-0.098-0.374-0.05-0.481,0.109C44.888,167.799,44.941,168.01,45.102,168.114   L45.102,168.114z M49.451,161.075c0.162,0.094,0.368,0.04,0.465-0.12c0.096-0.161,0.05-0.368-0.107-0.473   c-0.164-0.098-0.374-0.05-0.481,0.109C49.237,160.76,49.29,160.971,49.451,161.075L49.451,161.075z M61.696,201.864   c0.049,0.186,0.235,0.3,0.421,0.261c0.178-0.04,0.29-0.217,0.249-0.396c-0.001-0.005-0.002-0.009-0.004-0.013   c-0.038-0.183-0.217-0.302-0.4-0.264c-0.003,0.001-0.005,0.001-0.007,0.002C61.775,201.502,61.662,201.681,61.696,201.864   L61.696,201.864z M59.849,193.779c0.044,0.18,0.224,0.292,0.406,0.25c0.178-0.04,0.29-0.217,0.249-0.396   c-0.001-0.005-0.002-0.009-0.004-0.013c-0.038-0.183-0.217-0.302-0.4-0.264c-0.003,0.001-0.005,0.001-0.007,0.002   C59.91,193.408,59.802,193.595,59.849,193.779L59.849,193.779z M57.984,185.669c0.038,0.183,0.217,0.302,0.401,0.264   c0.003-0.001,0.005-0.001,0.007-0.002c0.174-0.035,0.288-0.204,0.254-0.378c-0.002-0.01-0.005-0.021-0.007-0.031   c-0.038-0.183-0.217-0.302-0.402-0.264c-0.003,0.001-0.005,0.001-0.006,0.002C58.052,185.308,57.943,185.488,57.984,185.669   L57.984,185.669z M56.122,177.585c0.047,0.183,0.233,0.294,0.417,0.247c0.18-0.046,0.29-0.227,0.249-0.409   c-0.046-0.18-0.224-0.295-0.408-0.263C56.195,177.211,56.082,177.397,56.122,177.585L56.122,177.585z M54.257,169.474   c0.039,0.185,0.221,0.302,0.406,0.262c0.184-0.039,0.302-0.221,0.262-0.406c0-0.002-0.001-0.003-0.001-0.005   c-0.039-0.184-0.219-0.303-0.404-0.264c-0.184,0.039-0.303,0.219-0.264,0.404C54.256,169.469,54.257,169.471,54.257,169.474z    M52.395,161.377c0.039,0.185,0.22,0.303,0.405,0.264c0.184-0.039,0.303-0.22,0.264-0.405c-0.001-0.003-0.001-0.005-0.002-0.007   c-0.042-0.183-0.223-0.3-0.408-0.263C52.473,161.014,52.36,161.193,52.395,161.377L52.395,161.377z M24.238,176.383   c0.105,0.151,0.312,0.189,0.462,0.084c0.005-0.004,0.011-0.007,0.015-0.012c0.149-0.103,0.185-0.306,0.083-0.455   c-0.004-0.005-0.006-0.009-0.01-0.013c-0.102-0.155-0.312-0.199-0.466-0.095c-0.005,0.003-0.009,0.006-0.013,0.009   C24.16,176.017,24.13,176.228,24.238,176.383L24.238,176.383z M30.93,171.564c0.105,0.153,0.314,0.192,0.466,0.088   c0.155-0.111,0.193-0.327,0.084-0.484c-0.113-0.151-0.322-0.189-0.48-0.086C30.848,171.195,30.816,171.41,30.93,171.564   L30.93,171.564z M37.607,166.746c0.109,0.156,0.322,0.196,0.479,0.087l0.001-0.001c0.15-0.115,0.185-0.325,0.084-0.484   c-0.11-0.152-0.322-0.186-0.473-0.076c-0.002,0.001-0.003,0.002-0.005,0.004c-0.153,0.101-0.195,0.306-0.094,0.459   C37.603,166.739,37.606,166.743,37.607,166.746L37.607,166.746z M44.302,161.942c0.113,0.152,0.325,0.183,0.478,0.073   c0.153-0.11,0.187-0.321,0.078-0.474c-0.002-0.003-0.005-0.006-0.007-0.009c-0.105-0.151-0.312-0.19-0.462-0.084   c-0.005,0.004-0.011,0.007-0.015,0.012c-0.153,0.11-0.188,0.322-0.078,0.474C44.297,161.934,44.3,161.937,44.302,161.942   L44.302,161.942z M44.057,198.05c-0.026,0.187,0.102,0.36,0.288,0.392c0.183,0.032,0.357-0.091,0.387-0.275   c0-0.001,0-0.001,0-0.002c0.028-0.187-0.093-0.364-0.277-0.407C44.266,197.73,44.088,197.861,44.057,198.05L44.057,198.05z    M45.414,189.855c-0.037,0.178,0.078,0.354,0.257,0.39c0.005,0.001,0.012,0.002,0.017,0.003c0.183,0.032,0.357-0.091,0.387-0.275   c0-0.001,0-0.001,0-0.002c0.029-0.187-0.092-0.364-0.277-0.407C45.613,189.54,45.441,189.669,45.414,189.855L45.414,189.855z    M46.756,181.662c-0.032,0.183,0.091,0.359,0.275,0.393c0.183,0.032,0.357-0.091,0.387-0.274c0-0.001,0-0.001,0-0.002   c0.037-0.178-0.078-0.353-0.257-0.39c-0.005-0.001-0.012-0.002-0.017-0.003c-0.176-0.036-0.348,0.077-0.384,0.254   C46.758,181.646,46.756,181.653,46.756,181.662L46.756,181.662z M48.098,173.468c-0.032,0.183,0.091,0.359,0.275,0.393   c0.105,0.022,0.214-0.008,0.291-0.082l0.013-0.002c0.05-0.054,0.084-0.121,0.096-0.194c0.026-0.187-0.102-0.36-0.288-0.392   c-0.183-0.032-0.357,0.091-0.387,0.274C48.098,173.467,48.098,173.467,48.098,173.468L48.098,173.468z M49.441,165.275   c-0.029,0.191,0.1,0.37,0.29,0.405c0.187,0.026,0.359-0.104,0.386-0.289c0.005-0.046,0.003-0.092-0.005-0.138   c-0.061-0.041-0.105-0.106-0.121-0.178c-0.044-0.041-0.101-0.068-0.162-0.076c-0.183-0.032-0.357,0.091-0.387,0.274   C49.441,165.274,49.441,165.275,49.441,165.275L49.441,165.275z M74.836,191.454c0.098,0.147,0.296,0.188,0.444,0.089   c0.007-0.005,0.013-0.009,0.02-0.014c0.156-0.108,0.197-0.322,0.089-0.478c-0.002-0.002-0.003-0.005-0.005-0.006   c-0.114-0.15-0.325-0.181-0.478-0.073c-0.153,0.11-0.188,0.322-0.078,0.474C74.831,191.448,74.832,191.451,74.836,191.454   L74.836,191.454z M70.047,184.679c0.104,0.156,0.315,0.198,0.47,0.094c0.155-0.104,0.198-0.315,0.094-0.471   c-0.005-0.006-0.008-0.013-0.013-0.018c-0.107-0.154-0.318-0.192-0.472-0.085c-0.154,0.107-0.192,0.318-0.085,0.473   C70.043,184.673,70.045,184.676,70.047,184.679z M55.697,164.368c0.105,0.153,0.314,0.192,0.466,0.088   c0.155-0.111,0.193-0.327,0.084-0.484c-0.113-0.151-0.322-0.189-0.48-0.086C55.615,163.999,55.584,164.215,55.697,164.368   L55.697,164.368z M19.664,156.747c-0.001,0.114,0.09,0.207,0.203,0.207c0.002,0,0.003,0,0.005,0c0.11-0.015,0.191-0.11,0.19-0.22   c-0.003-0.11-0.094-0.197-0.203-0.194c-0.11,0.003-0.197,0.094-0.194,0.203C19.664,156.744,19.664,156.745,19.664,156.747   L19.664,156.747z M24.512,156.59c0.004,0.11,0.095,0.198,0.206,0.194c0.057,0.002,0.11-0.027,0.14-0.076   c0.034-0.036,0.051-0.083,0.05-0.132c-0.004-0.11-0.095-0.198-0.206-0.194c-0.068-0.002-0.128,0.04-0.151,0.104   C24.52,156.511,24.505,156.55,24.512,156.59L24.512,156.59z M29.36,156.433c0.003,0.11,0.094,0.197,0.204,0.193   c0.11-0.003,0.197-0.094,0.193-0.204c0-0.001,0-0.002,0-0.002c-0.003-0.113-0.094-0.205-0.207-0.207   C29.439,156.228,29.358,156.322,29.36,156.433L29.36,156.433z M28.211,175.679c0.084,0.073,0.21,0.068,0.288-0.012   c0.073-0.085,0.067-0.211-0.013-0.29c-0.084-0.073-0.21-0.068-0.288,0.012C28.127,175.474,28.132,175.6,28.211,175.679   L28.211,175.679z M31.514,172.108c0.084,0.073,0.209,0.067,0.288-0.012c0.072-0.085,0.066-0.211-0.013-0.29   c-0.084-0.073-0.21-0.068-0.288,0.012C31.429,171.903,31.435,172.029,31.514,172.108L31.514,172.108z M34.828,168.521   c0.078,0.073,0.2,0.069,0.273-0.009l0.001-0.001c0.077-0.072,0.082-0.192,0.01-0.27c-0.007-0.007-0.014-0.014-0.024-0.02   c-0.083-0.073-0.209-0.065-0.281,0.018s-0.065,0.209,0.018,0.281C34.827,168.52,34.827,168.521,34.828,168.521L34.828,168.521z    M38.13,164.951c0.078,0.073,0.2,0.069,0.273-0.009l0.001-0.001c0.081-0.079,0.083-0.207,0.005-0.288   c-0.001-0.001-0.002-0.003-0.004-0.004c-0.084-0.072-0.209-0.067-0.288,0.012C38.045,164.745,38.05,164.872,38.13,164.951   L38.13,164.951z M41.43,161.365c0.084,0.073,0.21,0.068,0.288-0.012c0.073-0.086,0.063-0.216-0.024-0.288   c-0.081-0.069-0.2-0.065-0.277,0.01C41.347,161.16,41.352,161.287,41.43,161.365L41.43,161.365z M47.284,182.798   c0.005,0.11,0.097,0.195,0.207,0.191c0.11-0.005,0.195-0.097,0.191-0.207c-0.005-0.11-0.096-0.194-0.206-0.191   C47.365,182.595,47.279,182.689,47.284,182.798L47.284,182.798z M47.102,177.903c0.01,0.113,0.107,0.197,0.219,0.192   c0.11-0.004,0.196-0.096,0.191-0.207v-0.001c0.001-0.107-0.084-0.194-0.191-0.195c-0.005,0-0.01,0-0.014,0   c-0.113-0.001-0.205,0.091-0.205,0.203C47.101,177.898,47.101,177.901,47.102,177.903L47.102,177.903z M46.934,173.004   c0.003,0.11,0.094,0.197,0.203,0.194c0.11-0.003,0.197-0.094,0.194-0.203c0-0.001,0-0.003,0-0.004   c0.001-0.107-0.084-0.194-0.191-0.195c-0.005,0-0.01,0-0.014,0c-0.11,0.004-0.196,0.096-0.192,0.206   C46.934,173.003,46.934,173.004,46.934,173.004L46.934,173.004z M46.764,168.106l0.007,0.054c0.032,0.082,0.11,0.136,0.199,0.139   c0.11-0.005,0.196-0.096,0.191-0.207v-0.001c-0.005-0.084-0.057-0.159-0.136-0.191l-0.013,0.002   c-0.017-0.008-0.037-0.011-0.056-0.006c-0.106,0-0.192,0.085-0.192,0.191C46.764,168.096,46.764,168.101,46.764,168.106   L46.764,168.106z M46.582,163.21c0.004,0.11,0.095,0.198,0.206,0.194c0.111-0.005,0.197-0.098,0.192-0.209   c-0.005-0.11-0.096-0.195-0.206-0.192c-0.11,0.004-0.196,0.096-0.192,0.206C46.581,163.21,46.581,163.21,46.582,163.21   L46.582,163.21z M55.257,164.373c0.084,0.072,0.209,0.067,0.288-0.012c0.073-0.085,0.067-0.211-0.013-0.29   c-0.078-0.073-0.2-0.069-0.273,0.009l-0.001,0.001c-0.081,0.079-0.083,0.207-0.005,0.288   C55.255,164.37,55.256,164.372,55.257,164.373L55.257,164.373z M51.714,161.027c0.084,0.073,0.21,0.068,0.288-0.012   c0.073-0.085,0.067-0.211-0.013-0.29c-0.084-0.073-0.209-0.067-0.288,0.012C51.627,160.822,51.634,160.947,51.714,161.027   L51.714,161.027z M24.271,165.687c0.047,0.098,0.161,0.143,0.261,0.103c0.1-0.053,0.143-0.173,0.099-0.278   c-0.04-0.099-0.155-0.147-0.254-0.107c-0.003,0.001-0.005,0.002-0.007,0.004C24.27,165.463,24.227,165.583,24.271,165.687   L24.271,165.687z M28.681,163.659c0.045,0.1,0.161,0.147,0.261,0.103c0.099-0.039,0.147-0.152,0.108-0.251   c-0.002-0.005-0.004-0.009-0.006-0.013c-0.034-0.096-0.139-0.148-0.236-0.114c-0.009,0.003-0.017,0.006-0.026,0.011   c-0.1,0.043-0.147,0.159-0.104,0.259C28.68,163.655,28.68,163.658,28.681,163.659L28.681,163.659z M33.09,161.63   c0.038,0.098,0.148,0.147,0.246,0.11c0.005-0.002,0.011-0.005,0.015-0.007c0.097-0.036,0.147-0.145,0.111-0.242   c-0.003-0.008-0.006-0.015-0.01-0.024c-0.041-0.099-0.155-0.147-0.254-0.107c-0.003,0.001-0.005,0.002-0.007,0.004   C33.091,161.413,33.047,161.529,33.09,161.63L33.09,161.63z M37.502,159.616c0.053,0.098,0.171,0.141,0.276,0.101   c0.094-0.057,0.136-0.173,0.099-0.278c-0.051-0.1-0.171-0.145-0.276-0.101C37.502,159.39,37.458,159.511,37.502,159.616   L37.502,159.616z M37.863,178.723c0.104,0.032,0.215-0.021,0.259-0.12c0.041-0.103-0.008-0.217-0.11-0.258   c-0.003-0.001-0.005-0.002-0.008-0.003c-0.096-0.042-0.209,0.003-0.251,0.099c-0.003,0.006-0.005,0.013-0.007,0.021   C37.706,178.566,37.758,178.682,37.863,178.723L37.863,178.723z M39.566,174.136c0.104,0.032,0.215-0.021,0.259-0.12   c0.035-0.105-0.016-0.219-0.118-0.261c-0.095-0.045-0.209-0.005-0.254,0.091c-0.002,0.005-0.005,0.009-0.006,0.014   c-0.044,0.106,0.005,0.227,0.11,0.271C39.559,174.133,39.562,174.134,39.566,174.136L39.566,174.136z M41.255,169.536   c0.096,0.042,0.209-0.002,0.251-0.099c0.003-0.006,0.005-0.013,0.007-0.021c0.038-0.105-0.014-0.22-0.118-0.261   c-0.104-0.032-0.215,0.02-0.259,0.12c-0.041,0.103,0.008,0.217,0.11,0.258C41.248,169.534,41.251,169.535,41.255,169.536   L41.255,169.536z M42.945,164.951c0.096,0.042,0.209-0.002,0.251-0.099c0.003-0.006,0.005-0.013,0.007-0.021   c0.038-0.105-0.014-0.22-0.118-0.261c-0.104-0.032-0.215,0.021-0.259,0.12C42.788,164.794,42.84,164.91,42.945,164.951   L42.945,164.951z M44.634,160.366c0.106,0.038,0.221-0.017,0.259-0.122c0.038-0.105-0.015-0.219-0.12-0.258   c-0.105-0.039-0.22,0.014-0.259,0.12C44.486,160.209,44.536,160.32,44.634,160.366L44.634,160.366z M56.31,178.143   c0.04,0.099,0.155,0.147,0.254,0.107c0.003-0.001,0.005-0.002,0.007-0.004c0.1-0.043,0.147-0.159,0.102-0.259   c-0.001-0.002-0.002-0.004-0.002-0.005c-0.034-0.096-0.139-0.148-0.236-0.114c-0.009,0.003-0.017,0.006-0.026,0.011   c-0.1,0.043-0.147,0.159-0.102,0.259C56.308,178.14,56.309,178.142,56.31,178.143z M54.289,173.682   c0.049,0.103,0.172,0.148,0.276,0.101c0.096-0.049,0.136-0.165,0.087-0.262c-0.034-0.096-0.139-0.148-0.236-0.114   c-0.009,0.003-0.017,0.006-0.026,0.011c-0.1,0.043-0.147,0.159-0.102,0.259C54.289,173.68,54.289,173.68,54.289,173.682   L54.289,173.682z M52.269,169.221c0.051,0.1,0.171,0.145,0.276,0.101c0.1-0.053,0.143-0.173,0.099-0.278   c-0.055-0.101-0.18-0.138-0.281-0.084C52.27,169.01,52.229,169.123,52.269,169.221L52.269,169.221z M50.262,164.758   c0.04,0.099,0.155,0.147,0.254,0.107c0.003-0.001,0.005-0.002,0.008-0.004c0.065-0.034,0.107-0.096,0.114-0.169   c0.009-0.037,0.004-0.076-0.014-0.11c-0.047-0.098-0.161-0.142-0.261-0.103c-0.042,0.021-0.076,0.055-0.096,0.096l0.002,0.013   C50.232,164.642,50.23,164.706,50.262,164.758L50.262,164.758z M48.242,160.297c0.049,0.095,0.161,0.138,0.261,0.103   c0.104-0.047,0.149-0.171,0.101-0.275c-0.001-0.001-0.001-0.002-0.002-0.003c-0.04-0.099-0.155-0.147-0.254-0.107   c-0.003,0.001-0.005,0.002-0.008,0.004C48.242,160.073,48.199,160.194,48.242,160.297L48.242,160.297z M52.797,162.197   c0.109,0.068,0.251,0.036,0.321-0.072c0.066-0.11,0.035-0.252-0.073-0.323c-0.109-0.068-0.251-0.036-0.321,0.072   C52.658,161.984,52.689,162.126,52.797,162.197L52.797,162.197z M16.699,159.868c0.029,0.121,0.15,0.198,0.271,0.171   c0.124-0.03,0.204-0.15,0.181-0.276c-0.032-0.125-0.158-0.201-0.283-0.17c-0.001,0-0.002,0-0.002,0.001   c-0.12,0.025-0.197,0.142-0.171,0.261C16.697,159.861,16.698,159.865,16.699,159.868z M22.104,158.675   c0.029,0.121,0.15,0.198,0.271,0.171c0.124-0.03,0.204-0.15,0.181-0.276c-0.032-0.125-0.158-0.201-0.283-0.17   c-0.001,0-0.002,0-0.002,0.001c-0.117,0.021-0.195,0.131-0.174,0.248C22.1,158.657,22.102,158.667,22.104,158.675L22.104,158.675z    M27.51,157.482c0.029,0.121,0.15,0.198,0.271,0.171c0.121-0.033,0.199-0.151,0.181-0.276c-0.032-0.125-0.158-0.201-0.283-0.17   c-0.001,0-0.002,0-0.003,0.001c-0.117,0.02-0.195,0.131-0.174,0.248C27.505,157.464,27.507,157.473,27.51,157.482L27.51,157.482z    M24.758,180.536c0.1,0.066,0.236,0.039,0.301-0.061c0.002-0.003,0.004-0.005,0.005-0.008c0.071-0.104,0.043-0.245-0.06-0.316   c-0.004-0.003-0.008-0.005-0.012-0.007c-0.1-0.066-0.236-0.039-0.301,0.062c-0.002,0.003-0.004,0.005-0.005,0.008   C24.619,180.323,24.65,180.465,24.758,180.536L24.758,180.536z M27.725,175.83c0.109,0.068,0.251,0.036,0.321-0.073   c0.066-0.11,0.035-0.252-0.073-0.323c-0.1-0.066-0.236-0.039-0.301,0.062c-0.002,0.003-0.004,0.005-0.005,0.008   c-0.075,0.1-0.054,0.243,0.047,0.317C27.715,175.825,27.719,175.827,27.725,175.83L27.725,175.83z M30.705,171.122   c0.096,0.056,0.219,0.039,0.296-0.041c0.012-0.015,0.025-0.017,0.024-0.032c0.066-0.11,0.035-0.252-0.073-0.323   c-0.109-0.068-0.251-0.036-0.321,0.073C30.565,170.909,30.597,171.051,30.705,171.122L30.705,171.122z M33.684,166.414   c0.109,0.068,0.251,0.036,0.321-0.072c0.066-0.11,0.035-0.252-0.073-0.323c-0.066-0.045-0.152-0.049-0.221-0.011   c-0.027,0.004-0.039,0.019-0.052,0.021l-0.047,0.063C33.544,166.2,33.576,166.343,33.684,166.414L33.684,166.414z M36.663,161.706   c0.099,0.066,0.233,0.039,0.3-0.059c0.003-0.004,0.005-0.007,0.006-0.01c0.075-0.1,0.054-0.243-0.047-0.317   c-0.004-0.003-0.008-0.005-0.012-0.008c-0.109-0.068-0.251-0.036-0.321,0.073C36.524,161.493,36.556,161.634,36.663,161.706   L36.663,161.706z M47.61,184.56c0.018,0.117,0.128,0.196,0.244,0.177c0.009-0.002,0.017-0.004,0.027-0.006   c0.121-0.031,0.197-0.152,0.169-0.274c-0.032-0.121-0.149-0.2-0.273-0.185C47.651,184.306,47.578,184.434,47.61,184.56   C47.61,184.559,47.61,184.56,47.61,184.56L47.61,184.56z M46.401,179.097c0.032,0.125,0.158,0.201,0.282,0.17   c0.001,0,0.002,0,0.003-0.001c0.121-0.031,0.197-0.152,0.168-0.274c-0.032-0.121-0.149-0.2-0.273-0.184   C46.455,178.845,46.378,178.969,46.401,179.097L46.401,179.097z M45.216,173.617c0.013,0.118,0.12,0.204,0.238,0.191   c0.012-0.001,0.024-0.004,0.035-0.006c0.121-0.031,0.197-0.152,0.168-0.274c-0.032-0.121-0.149-0.2-0.273-0.185   C45.263,173.374,45.189,173.495,45.216,173.617L45.216,173.617z M44.02,168.153c0.013,0.118,0.12,0.204,0.238,0.191   c0.012-0.001,0.024-0.004,0.035-0.006c0.121-0.031,0.197-0.152,0.168-0.274c-0.028-0.124-0.148-0.206-0.273-0.184   C44.068,167.909,43.992,168.03,44.02,168.153L44.02,168.153z M42.824,162.688c0.013,0.118,0.12,0.204,0.238,0.191   c0.012-0.001,0.024-0.004,0.035-0.006c0.128-0.024,0.212-0.147,0.189-0.274c-0.024-0.128-0.147-0.212-0.274-0.189   c-0.128,0.024-0.212,0.147-0.189,0.274C42.823,162.686,42.823,162.687,42.824,162.688z M18.433,170.221   c0.066,0.108,0.207,0.14,0.314,0.073c0.004-0.003,0.007-0.005,0.012-0.007c0.097-0.08,0.12-0.22,0.051-0.327   c-0.073-0.103-0.216-0.128-0.32-0.054C18.39,169.978,18.364,170.117,18.433,170.221L18.433,170.221z M22.972,167.035   c0.071,0.101,0.209,0.125,0.309,0.054l0,0c0.108-0.068,0.139-0.21,0.071-0.318c-0.068-0.108-0.21-0.139-0.318-0.071   c-0.004,0.003-0.008,0.005-0.012,0.008C22.921,166.786,22.899,166.931,22.972,167.035L22.972,167.035z M27.508,163.835   c0.061,0.099,0.193,0.129,0.292,0.067c0.006-0.004,0.013-0.008,0.018-0.013c0.105-0.064,0.136-0.199,0.073-0.303   c-0.002-0.004-0.005-0.007-0.007-0.011c-0.075-0.104-0.217-0.133-0.325-0.066C27.461,163.588,27.44,163.729,27.508,163.835   L27.508,163.835z M32.046,160.649c0.071,0.101,0.209,0.125,0.309,0.054l0,0c0.108-0.07,0.138-0.213,0.07-0.322   c-0.002-0.003-0.004-0.005-0.005-0.007c-0.076-0.104-0.22-0.127-0.324-0.051c-0.105,0.076-0.127,0.22-0.051,0.324   C32.046,160.648,32.046,160.648,32.046,160.649L32.046,160.649z M36.583,157.449c0.061,0.099,0.193,0.129,0.292,0.067   c0.006-0.004,0.013-0.008,0.018-0.013c0.105-0.064,0.136-0.199,0.073-0.303c-0.002-0.004-0.005-0.007-0.007-0.011   c-0.072-0.108-0.217-0.137-0.325-0.066C36.537,157.203,36.514,157.343,36.583,157.449L36.583,157.449z M36.265,181.989   c0.027,0.019,0.057,0.034,0.088,0.043c0.122,0.024,0.239-0.057,0.261-0.18c0.001-0.003,0.001-0.006,0.002-0.009   c0.019-0.121-0.056-0.237-0.174-0.268l-0.013,0.002c-0.122-0.024-0.239,0.057-0.261,0.18c-0.001,0.003-0.001,0.006-0.002,0.009   C36.147,181.853,36.187,181.942,36.265,181.989L36.265,181.989z M37.135,176.251c-0.026,0.122,0.051,0.242,0.173,0.268h0.001   c0.125,0.022,0.246-0.055,0.278-0.177c0.016-0.128-0.066-0.248-0.191-0.28C37.272,176.041,37.156,176.127,37.135,176.251   L37.135,176.251z M38.093,170.752c-0.024,0.123,0.058,0.242,0.181,0.264c0.002,0,0.004,0.001,0.006,0.001   c0.122,0.024,0.239-0.057,0.261-0.18c0.001-0.003,0.001-0.006,0.002-0.009c0.024-0.123-0.058-0.243-0.183-0.264   c-0.002,0-0.004-0.001-0.005-0.001c-0.122-0.022-0.239,0.057-0.261,0.18C38.094,170.746,38.094,170.75,38.093,170.752   L38.093,170.752z M39.05,165.24c-0.02,0.125,0.064,0.243,0.189,0.267c0.113,0.031,0.23-0.038,0.26-0.151   c0.002-0.008,0.004-0.016,0.005-0.025c0.026-0.122-0.051-0.242-0.173-0.268H39.33c-0.125-0.029-0.249,0.049-0.278,0.173   C39.05,165.237,39.05,165.239,39.05,165.24L39.05,165.24z M40.018,159.809c0.049,0.039,0.085,0.093,0.104,0.153   c0.027,0.019,0.057,0.034,0.088,0.043c0.122,0.022,0.239-0.057,0.261-0.18c0.001-0.003,0.001-0.006,0.002-0.009   c0.024-0.123-0.058-0.242-0.181-0.264c-0.002,0-0.004-0.001-0.006-0.001c-0.122-0.024-0.239,0.057-0.261,0.18   c-0.001,0.003-0.001,0.006-0.002,0.009C40.016,159.761,40.014,159.787,40.018,159.809L40.018,159.809z M56.928,177.543   c0.072,0.104,0.215,0.13,0.319,0.057c0.104-0.073,0.13-0.215,0.057-0.319l0,0c-0.06-0.104-0.194-0.138-0.296-0.078   c-0.005,0.003-0.01,0.006-0.015,0.01C56.886,177.288,56.857,177.434,56.928,177.543L56.928,177.543z M53.761,172.949   c0.063,0.099,0.193,0.129,0.292,0.067c0.006-0.004,0.013-0.008,0.018-0.013c0.104-0.064,0.136-0.199,0.073-0.303   c-0.003-0.004-0.005-0.007-0.007-0.011c-0.067-0.108-0.209-0.139-0.316-0.073c-0.108,0.067-0.139,0.209-0.073,0.316   C53.753,172.937,53.758,172.944,53.761,172.949L53.761,172.949z M50.581,168.356c0.068,0.103,0.207,0.131,0.309,0.063   c0.005-0.004,0.01-0.006,0.014-0.01c0.102-0.079,0.121-0.224,0.042-0.328c-0.076-0.097-0.213-0.12-0.315-0.051   C50.535,168.109,50.514,168.251,50.581,168.356L50.581,168.356z M47.402,163.764c0.073,0.104,0.217,0.128,0.321,0.055   c0.001-0.001,0.002-0.002,0.003-0.002c0.102-0.076,0.123-0.22,0.047-0.323c-0.072-0.095-0.204-0.121-0.306-0.057   C47.365,163.513,47.338,163.653,47.402,163.764L47.402,163.764z M44.236,159.17c0.068,0.103,0.207,0.131,0.309,0.063   c0.005-0.004,0.01-0.006,0.014-0.01c0.1-0.073,0.123-0.212,0.053-0.314c-0.073-0.106-0.217-0.135-0.325-0.066   C44.189,158.923,44.166,159.064,44.236,159.17L44.236,159.17z M16.486,167.376c0.124,0.172,0.364,0.21,0.536,0.086   c0.004-0.003,0.008-0.006,0.012-0.009c0.177-0.128,0.217-0.376,0.09-0.553c-0.127-0.176-0.373-0.217-0.551-0.091   C16.4,166.946,16.361,167.194,16.486,167.376L16.486,167.376z M24.15,161.728c0.122,0.176,0.365,0.219,0.54,0.097   c0.003-0.002,0.005-0.005,0.009-0.006c0.177-0.128,0.217-0.376,0.09-0.553c-0.127-0.176-0.373-0.217-0.551-0.091   C24.066,161.306,24.028,161.549,24.15,161.728L24.15,161.728z M31.769,155.96c0.009,0.047,0.03,0.093,0.059,0.13   c0.04,0.061,0.1,0.107,0.169,0.129c0.124,0.057,0.27,0.042,0.38-0.039c0.172-0.129,0.207-0.374,0.078-0.548   c-0.001-0.002-0.002-0.003-0.004-0.005c-0.12-0.175-0.359-0.22-0.534-0.101c-0.005,0.004-0.01,0.006-0.014,0.01   C31.768,155.632,31.713,155.807,31.769,155.96L31.769,155.96z M27.549,205.09c-0.026,0.217,0.123,0.416,0.338,0.454   c0.214,0.034,0.416-0.113,0.45-0.326l0,0c0.029-0.217-0.121-0.418-0.338-0.454C27.785,204.73,27.584,204.876,27.549,205.09   C27.549,205.089,27.549,205.09,27.549,205.09L27.549,205.09z M29.017,195.615c-0.038,0.214,0.106,0.417,0.32,0.455   c0.002,0,0.004,0.001,0.005,0.001c0.211,0.037,0.411-0.105,0.448-0.315c0.001-0.004,0.001-0.007,0.002-0.011   c0.038-0.214-0.106-0.417-0.319-0.455c-0.214-0.038-0.417,0.106-0.455,0.319C29.018,195.61,29.017,195.613,29.017,195.615   L29.017,195.615z M30.471,186.14c-0.029,0.217,0.121,0.418,0.338,0.454c0.216,0.029,0.413-0.124,0.442-0.34   c0.029-0.216-0.124-0.413-0.34-0.442C30.699,185.784,30.505,185.93,30.471,186.14z M31.938,176.665   c-0.034,0.215,0.11,0.418,0.324,0.455c0.216,0.033,0.418-0.116,0.451-0.332c0.032-0.213-0.113-0.413-0.325-0.45   c-0.211-0.037-0.411,0.105-0.448,0.315C31.938,176.658,31.938,176.661,31.938,176.665L31.938,176.665z M33.392,167.191   c-0.029,0.217,0.121,0.418,0.338,0.454c0.203,0.036,0.397-0.099,0.433-0.302c0.001-0.007,0.003-0.014,0.004-0.024   c0.044-0.204-0.084-0.405-0.288-0.449c-0.012-0.003-0.024-0.005-0.036-0.006C33.628,166.83,33.427,166.977,33.392,167.191   L33.392,167.191L33.392,167.191z M34.859,157.715c-0.034,0.215,0.11,0.418,0.324,0.455c0.214,0.034,0.416-0.113,0.45-0.326l0,0   c0.04-0.21-0.098-0.412-0.307-0.453c-0.005-0.001-0.011-0.002-0.016-0.003c-0.207-0.039-0.407,0.096-0.447,0.303   C34.861,157.701,34.86,157.708,34.859,157.715L34.859,157.715z M66.464,195.963c0.134,0.175,0.381,0.214,0.563,0.089   c0.172-0.129,0.207-0.374,0.078-0.548c-0.001-0.002-0.002-0.003-0.004-0.005c-0.12-0.175-0.359-0.22-0.534-0.101   c-0.005,0.004-0.01,0.006-0.014,0.01C66.38,195.541,66.342,195.784,66.464,195.963L66.464,195.963z M60.865,188.203   c0.127,0.176,0.373,0.217,0.55,0.09c0.177-0.127,0.217-0.373,0.09-0.55c-0.001-0.001-0.002-0.002-0.003-0.004   c-0.12-0.175-0.359-0.221-0.534-0.101c-0.005,0.004-0.01,0.007-0.014,0.01C60.78,187.779,60.741,188.024,60.865,188.203   L60.865,188.203z M55.266,180.442c0.128,0.175,0.372,0.216,0.549,0.091c0.173-0.136,0.211-0.385,0.086-0.568   c-0.124-0.172-0.364-0.21-0.534-0.086c-0.004,0.003-0.008,0.006-0.012,0.009c-0.177,0.125-0.218,0.37-0.094,0.547   C55.262,180.438,55.264,180.44,55.266,180.442L55.266,180.442z M49.667,172.681c0.128,0.175,0.372,0.216,0.549,0.091   c0.172-0.138,0.209-0.384,0.086-0.568c-0.135-0.172-0.384-0.204-0.557-0.069C49.576,172.267,49.541,172.508,49.667,172.681   L49.667,172.681z M44.054,164.922c0.124,0.172,0.364,0.21,0.536,0.086c0.004-0.003,0.008-0.006,0.012-0.009   c0.177-0.128,0.217-0.376,0.089-0.554c-0.128-0.175-0.372-0.217-0.549-0.091C43.967,164.491,43.929,164.74,44.054,164.922   L44.054,164.922z M16.849,157.568c0.045,0.203,0.245,0.332,0.449,0.288c0.005-0.001,0.011-0.003,0.016-0.004   c0.209-0.047,0.34-0.255,0.294-0.465c-0.001-0.002-0.001-0.005-0.002-0.006c-0.056-0.211-0.267-0.34-0.482-0.295   c-0.209,0.054-0.333,0.268-0.28,0.476C16.847,157.563,16.848,157.566,16.849,157.568L16.849,157.568z M26.069,155.318   c0.046,0.21,0.254,0.344,0.465,0.298c0.005-0.001,0.011-0.003,0.016-0.004c0.204-0.047,0.331-0.251,0.283-0.455   c-0.001-0.005-0.003-0.009-0.004-0.014c-0.046-0.21-0.254-0.343-0.465-0.296c-0.21,0.046-0.343,0.254-0.296,0.465   C26.067,155.313,26.069,155.316,26.069,155.318L26.069,155.318z M20.412,178.052c0.188,0.111,0.429,0.053,0.545-0.131   c0.11-0.19,0.052-0.433-0.131-0.553c-0.188-0.113-0.429-0.054-0.545,0.131C20.17,177.691,20.227,177.931,20.412,178.052   L20.412,178.052z M25.344,169.862c0.177,0.12,0.418,0.075,0.538-0.103c0.003-0.005,0.006-0.009,0.009-0.014   c0.11-0.19,0.052-0.433-0.131-0.553c-0.181-0.116-0.423-0.063-0.539,0.12c-0.003,0.004-0.005,0.007-0.007,0.012   C25.104,169.509,25.162,169.748,25.344,169.862L25.344,169.862z M30.292,161.684c0.183,0.116,0.424,0.061,0.54-0.121   c0.002-0.004,0.005-0.006,0.006-0.01c0.104-0.176,0.047-0.403-0.126-0.51c-0.002-0.013-0.002-0.013-0.017-0.026   c-0.169-0.108-0.392-0.065-0.508,0.098l-0.024,0.032c-0.114,0.178-0.063,0.415,0.116,0.53   C30.282,161.678,30.288,161.681,30.292,161.684z M46.214,200.213c0.059,0.207,0.268,0.335,0.482,0.295   c0.207-0.059,0.331-0.274,0.278-0.483c-0.044-0.209-0.25-0.342-0.459-0.298c-0.003,0.001-0.005,0.001-0.008,0.002   C46.29,199.782,46.16,199.998,46.214,200.213L46.214,200.213z M43.973,190.875c0.05,0.214,0.265,0.346,0.479,0.295   c0.001,0,0.001,0,0.002-0.001c0.207-0.052,0.332-0.262,0.28-0.469c-0.046-0.21-0.254-0.343-0.465-0.296   c-0.21,0.046-0.343,0.254-0.296,0.465C43.972,190.87,43.972,190.873,43.973,190.875L43.973,190.875z M41.734,181.551   c0.044,0.209,0.25,0.342,0.459,0.298c0.003-0.001,0.005-0.001,0.008-0.002c0.214-0.054,0.344-0.271,0.29-0.485   c-0.049-0.209-0.257-0.341-0.467-0.296C41.81,181.119,41.68,181.337,41.734,181.551L41.734,181.551z M39.494,172.227   c0.054,0.209,0.267,0.334,0.475,0.28c0.206-0.053,0.331-0.261,0.282-0.468c-0.047-0.21-0.256-0.342-0.467-0.296   C39.571,171.795,39.441,172.013,39.494,172.227L39.494,172.227z M37.24,162.892c0.05,0.214,0.265,0.346,0.48,0.295   c0.001,0,0.001,0,0.002-0.001c0.21-0.058,0.338-0.272,0.29-0.485c-0.051-0.207-0.261-0.335-0.469-0.284   c-0.004,0.001-0.006,0.002-0.01,0.003C37.324,162.472,37.193,162.681,37.24,162.892L37.24,162.892z M51.586,164.088   c0.181,0.111,0.419,0.055,0.531-0.127c0.001-0.001,0.001-0.002,0.002-0.003c0.11-0.19,0.052-0.433-0.131-0.551   c-0.185-0.115-0.429-0.057-0.544,0.128c-0.115,0.186-0.057,0.43,0.128,0.544C51.577,164.083,51.581,164.085,51.586,164.088   L51.586,164.088z M43.464,159.068c0.188,0.113,0.429,0.054,0.545-0.131c0.11-0.191,0.051-0.432-0.131-0.553   c-0.184-0.113-0.424-0.052-0.536,0.132c-0.003,0.005-0.005,0.008-0.007,0.013C43.224,158.715,43.283,158.955,43.464,159.068   L43.464,159.068z M16.404,154.46c0.037,0.21,0.236,0.351,0.447,0.314c0.004-0.001,0.006-0.001,0.01-0.002   c0.207-0.034,0.346-0.229,0.313-0.436c-0.001-0.008-0.003-0.015-0.005-0.024c-0.037-0.21-0.236-0.351-0.447-0.314   c-0.004,0.001-0.006,0.001-0.009,0.002C16.501,154.044,16.364,154.247,16.404,154.46L16.404,154.46z M17.344,171.79   c0.179,0.123,0.423,0.078,0.547-0.1c0.123-0.179,0.078-0.423-0.1-0.547c-0.005-0.004-0.01-0.006-0.014-0.01   c-0.166-0.122-0.4-0.086-0.521,0.08c-0.005,0.007-0.01,0.014-0.014,0.022c-0.125,0.18-0.079,0.43,0.102,0.554   C17.343,171.788,17.344,171.789,17.344,171.79L17.344,171.79z M22.602,163.862c0.184,0.116,0.427,0.064,0.547-0.118   c0.115-0.181,0.064-0.421-0.116-0.54c-0.165-0.122-0.399-0.086-0.521,0.079c-0.005,0.007-0.011,0.015-0.015,0.024   c-0.125,0.18-0.079,0.43,0.102,0.554C22.6,163.859,22.601,163.86,22.602,163.862L22.602,163.862z M27.859,155.933   c0.184,0.115,0.427,0.057,0.542-0.128c0.11-0.178,0.061-0.411-0.11-0.53c-0.175-0.124-0.418-0.083-0.542,0.091   c-0.003,0.004-0.005,0.007-0.008,0.012C27.628,155.565,27.68,155.808,27.859,155.933L27.859,155.933z M40.464,203.288   c0.05,0.209,0.26,0.338,0.469,0.288c0.209-0.05,0.338-0.26,0.288-0.469c-0.049-0.202-0.247-0.331-0.451-0.291   C40.555,202.862,40.418,203.073,40.464,203.288L40.464,203.288z M38.616,193.911c0.044,0.215,0.254,0.355,0.469,0.311   c0.207-0.049,0.341-0.249,0.307-0.459c-0.047-0.215-0.254-0.357-0.471-0.324C38.71,193.488,38.576,193.696,38.616,193.911   L38.616,193.911z M36.767,184.532c0.042,0.214,0.251,0.354,0.465,0.312c0.213-0.042,0.351-0.247,0.313-0.461   c-0.041-0.211-0.244-0.351-0.455-0.313C36.876,184.114,36.734,184.317,36.767,184.532L36.767,184.532z M34.934,175.153   c0.032,0.207,0.224,0.347,0.43,0.317c0.008-0.001,0.016-0.003,0.025-0.005c0.21-0.044,0.347-0.248,0.307-0.459   c-0.039-0.211-0.242-0.351-0.453-0.313c-0.211,0.039-0.35,0.242-0.313,0.453C34.933,175.147,34.933,175.149,34.934,175.153   L34.934,175.153z M33.086,165.773c0.037,0.21,0.236,0.351,0.447,0.314c0.004-0.001,0.006-0.001,0.01-0.002   c0.043-0.007,0.084-0.028,0.116-0.057c0.013-0.002,0.025-0.017,0.052-0.02c0.118-0.088,0.172-0.237,0.139-0.381   c-0.039-0.211-0.241-0.352-0.453-0.314c-0.211,0.039-0.351,0.241-0.314,0.453C33.085,165.768,33.085,165.771,33.086,165.773   L33.086,165.773z M31.239,156.396c0.013,0.082,0.058,0.155,0.125,0.205c0.004,0.028,0.033,0.038,0.061,0.047   c0.078,0.055,0.175,0.077,0.27,0.059c0.21-0.039,0.348-0.241,0.309-0.451c-0.001-0.003-0.001-0.005-0.002-0.008l-0.004-0.028   c-0.028-0.12-0.113-0.217-0.229-0.26c-0.071-0.03-0.148-0.039-0.223-0.025c-0.21,0.039-0.348,0.242-0.309,0.451   C31.237,156.391,31.237,156.393,31.239,156.396z M58.007,170.624c0.184,0.116,0.427,0.064,0.547-0.118   c0.115-0.181,0.064-0.421-0.116-0.54c-0.166-0.122-0.4-0.086-0.521,0.08c-0.005,0.007-0.01,0.014-0.014,0.022   c-0.125,0.18-0.079,0.43,0.102,0.554C58.005,170.622,58.006,170.623,58.007,170.624L58.007,170.624z M49.99,165.074   c0.016,0.073,0.059,0.136,0.121,0.178c0.002,0.013,0.017,0.026,0.033,0.037c0.174,0.124,0.417,0.083,0.542-0.091   c0.003-0.004,0.005-0.008,0.008-0.012c0.099-0.157,0.077-0.362-0.054-0.493c-0.013-0.027-0.036-0.047-0.064-0.06   c-0.091-0.06-0.204-0.08-0.311-0.054l0.002,0.013c-0.094,0.011-0.177,0.064-0.228,0.142   C49.969,164.833,49.952,164.959,49.99,165.074L49.99,165.074z M42.28,159.955c0.165,0.122,0.399,0.086,0.52-0.079   c0.005-0.007,0.011-0.015,0.015-0.024c0.026-0.035,0.044-0.076,0.052-0.118c0.02-0.064,0.022-0.131,0.001-0.195   c-0.02-0.098-0.076-0.184-0.157-0.243c-0.184-0.116-0.427-0.064-0.547,0.118C42.05,159.596,42.101,159.837,42.28,159.955   L42.28,159.955z M22.371,156.428c0.124,0.179,0.369,0.223,0.548,0.098c0.174-0.121,0.221-0.359,0.107-0.536   c-0.114-0.183-0.355-0.241-0.538-0.128c-0.005,0.003-0.009,0.006-0.014,0.009C22.294,155.998,22.249,156.245,22.371,156.428   L22.371,156.428z M22.622,188.561c-0.038,0.216,0.107,0.421,0.322,0.459c0.209,0.037,0.409-0.096,0.455-0.303   c0.045-0.215-0.093-0.425-0.307-0.469c-0.214-0.044-0.425,0.092-0.469,0.308C22.622,188.558,22.622,188.56,22.622,188.561z    M24.474,179.186c-0.046,0.213,0.09,0.423,0.303,0.469c0.003,0.001,0.006,0.001,0.009,0.002c0.211,0.038,0.412-0.103,0.452-0.314   c0.037-0.215-0.1-0.421-0.314-0.472c-0.209-0.04-0.411,0.097-0.451,0.306C24.475,179.181,24.475,179.183,24.474,179.186   L24.474,179.186z M26.315,169.825c-0.04,0.212,0.099,0.417,0.312,0.457c0.209,0.049,0.416-0.081,0.465-0.289   c0.001-0.004,0.002-0.008,0.003-0.012c0.04-0.216-0.098-0.424-0.314-0.472C26.567,169.47,26.359,169.611,26.315,169.825   L26.315,169.825z M28.155,160.451c-0.04,0.216,0.098,0.424,0.314,0.472c0.215,0.04,0.422-0.1,0.465-0.315   c0.04-0.212-0.099-0.417-0.312-0.457C28.41,160.107,28.202,160.24,28.155,160.451L28.155,160.451z M56.396,191.491   c0.124,0.18,0.37,0.227,0.551,0.105c0.177-0.122,0.223-0.364,0.104-0.543c-0.108-0.18-0.34-0.239-0.522-0.131   c-0.006,0.004-0.012,0.007-0.018,0.011c-0.185,0.12-0.239,0.366-0.12,0.551C56.393,191.487,56.394,191.488,56.396,191.491   L56.396,191.491z M51.14,183.529c0.122,0.18,0.366,0.227,0.547,0.106c0.179-0.121,0.226-0.364,0.108-0.544   c-0.108-0.18-0.34-0.239-0.522-0.131c-0.006,0.004-0.012,0.007-0.018,0.011c-0.185,0.12-0.239,0.366-0.12,0.551   C51.138,183.525,51.139,183.527,51.14,183.529L51.14,183.529z M45.885,175.569c0.122,0.18,0.367,0.227,0.547,0.105   c0.178-0.121,0.226-0.363,0.108-0.543c-0.116-0.181-0.358-0.236-0.539-0.12c-0.185,0.12-0.239,0.366-0.12,0.551   C45.883,175.564,45.884,175.566,45.885,175.569L45.885,175.569z M40.631,167.607c0.125,0.178,0.369,0.224,0.551,0.105   c0.177-0.122,0.223-0.364,0.104-0.543c-0.118-0.183-0.362-0.236-0.544-0.118c-0.183,0.118-0.236,0.362-0.118,0.544   C40.624,167.6,40.628,167.604,40.631,167.607L40.631,167.607z M35.375,159.645c0.125,0.178,0.369,0.224,0.551,0.105   c0.177-0.122,0.223-0.364,0.104-0.543c-0.118-0.177-0.358-0.226-0.534-0.109c-0.001,0.001-0.002,0.001-0.003,0.002   C35.318,159.225,35.266,159.461,35.375,159.645L35.375,159.645z M55.122,162.599c0.154,0.06,0.327-0.013,0.389-0.165   c0.059-0.155-0.013-0.328-0.165-0.394c-0.154-0.06-0.326,0.013-0.389,0.165C54.899,162.359,54.97,162.532,55.122,162.599   L55.122,162.599z M48.506,159.913c0.149,0.051,0.313-0.019,0.377-0.164c0.066-0.151-0.005-0.325-0.155-0.391   c-0.003-0.001-0.006-0.003-0.009-0.004c-0.147-0.059-0.314,0.01-0.374,0.157c-0.001,0.002-0.002,0.005-0.003,0.006   c-0.065,0.154,0.008,0.329,0.162,0.393C48.504,159.912,48.505,159.913,48.506,159.913L48.506,159.913z M15.62,154.763   c0.032-0.002,0.065-0.011,0.092-0.027c0.147-0.06,0.217-0.229,0.157-0.376c-0.001-0.003-0.002-0.005-0.003-0.007   c-0.036-0.104-0.134-0.174-0.244-0.174C15.623,154.374,15.622,154.568,15.62,154.763L15.62,154.763z M18.707,167.222   c0.154,0.06,0.327-0.013,0.389-0.165c0.059-0.155-0.013-0.328-0.165-0.394c-0.147-0.059-0.314,0.01-0.374,0.157   c-0.001,0.002-0.002,0.005-0.003,0.006C18.493,166.977,18.559,167.152,18.707,167.222L18.707,167.222z M21.358,160.53   c0.147,0.059,0.314-0.01,0.374-0.157c0.001-0.002,0.002-0.005,0.003-0.006c0.065-0.154-0.008-0.329-0.161-0.393   c-0.001-0.001-0.003-0.001-0.004-0.002c-0.156-0.052-0.325,0.032-0.378,0.188C21.14,160.309,21.213,160.47,21.358,160.53z    M40.643,186.79c0.061,0.149,0.233,0.22,0.381,0.159c0.004-0.002,0.007-0.004,0.012-0.005c0.146-0.066,0.213-0.235,0.154-0.383   c-0.054-0.147-0.217-0.221-0.363-0.167c-0.01,0.004-0.02,0.008-0.03,0.013C40.651,186.473,40.583,186.642,40.643,186.79   L40.643,186.79z M37.829,180.173c0.068,0.149,0.242,0.217,0.392,0.155c0.149-0.071,0.215-0.245,0.152-0.396   c-0.061-0.149-0.232-0.22-0.381-0.159c-0.004,0.002-0.008,0.004-0.012,0.005C37.832,179.847,37.766,180.022,37.829,180.173   L37.829,180.173z M35.014,173.542c0.068,0.149,0.242,0.217,0.392,0.155c0.149-0.071,0.215-0.245,0.152-0.396   c-0.068-0.149-0.242-0.217-0.392-0.155C35.017,173.216,34.95,173.39,35.014,173.542L35.014,173.542z M32.198,166.912   c0.057,0.147,0.222,0.217,0.368,0.161c0.004-0.002,0.007-0.003,0.011-0.005c0.153-0.059,0.226-0.232,0.167-0.384v-0.001   c-0.065-0.155-0.24-0.229-0.395-0.168c-0.151,0.065-0.219,0.239-0.155,0.389C32.197,166.906,32.198,166.909,32.198,166.912   L32.198,166.912z M29.383,160.281c0.05,0.144,0.207,0.218,0.35,0.168c0.01-0.004,0.02-0.007,0.03-0.012   c0.144-0.053,0.217-0.213,0.165-0.358c-0.004-0.009-0.007-0.017-0.011-0.026c-0.05-0.144-0.207-0.218-0.35-0.168   c-0.01,0.004-0.02,0.007-0.03,0.012c-0.147,0.06-0.217,0.229-0.156,0.376C29.381,160.276,29.382,160.279,29.383,160.281   L29.383,160.281z M15.719,160.24c0.055-0.089,0.055-0.202,0.001-0.292C15.712,160.045,15.712,160.143,15.719,160.24L15.719,160.24z    M20.244,155.165c0.11,0.114,0.289,0.118,0.403,0.008c0.004-0.003,0.006-0.006,0.01-0.01c0.115-0.114,0.115-0.298,0.001-0.412   c-0.001-0.001-0.003-0.003-0.004-0.004c-0.1-0.114-0.274-0.124-0.386-0.024c-0.009,0.008-0.017,0.016-0.026,0.026   c-0.115,0.105-0.122,0.282-0.017,0.397C20.229,155.153,20.237,155.159,20.244,155.165L20.244,155.165z M25.52,186.048   c0.005,0.162,0.138,0.292,0.302,0.292c0.16-0.012,0.285-0.144,0.288-0.303c-0.002-0.164-0.136-0.294-0.3-0.292   c-0.001,0-0.001,0-0.002,0c-0.158-0.002-0.287,0.124-0.288,0.282C25.519,186.033,25.52,186.041,25.52,186.048L25.52,186.048z    M25.416,178.833c0.006,0.165,0.138,0.298,0.303,0.306c0.162-0.004,0.291-0.138,0.288-0.3c0-0.001,0-0.003,0-0.004   c0.005-0.158-0.12-0.289-0.278-0.294c-0.004,0-0.006,0-0.01,0c-0.162-0.005-0.298,0.123-0.303,0.286   C25.416,178.828,25.416,178.831,25.416,178.833L25.416,178.833z M25.327,171.63c-0.003,0.158,0.123,0.289,0.281,0.292   c0.006,0,0.013,0,0.02,0c0.156,0.005,0.286-0.118,0.29-0.274c0-0.005,0-0.011,0-0.016c-0.006-0.165-0.138-0.298-0.303-0.306   c-0.162,0.004-0.291,0.137-0.288,0.3C25.327,171.628,25.327,171.628,25.327,171.63L25.327,171.63z M25.225,164.429   c0.002,0.164,0.136,0.294,0.299,0.292c0.001,0,0.001,0,0.002,0c0.157,0.002,0.287-0.124,0.288-0.282c0-0.007,0-0.014-0.001-0.022   c0.002-0.161-0.128-0.292-0.288-0.294C25.361,164.13,25.23,164.263,25.225,164.429L25.225,164.429z M25.136,157.226   c-0.007,0.126,0.071,0.24,0.191,0.28l0.013-0.002c0.032,0.011,0.066,0.016,0.098,0.014c0.158,0.002,0.287-0.124,0.288-0.282   c0-0.007,0-0.014-0.001-0.022c-0.001-0.162-0.133-0.293-0.295-0.292c-0.002,0-0.004,0-0.005,0   c-0.086,0.001-0.168,0.043-0.217,0.114C25.164,157.09,25.139,157.158,25.136,157.226L25.136,157.226z M50.765,175.644   c0.11,0.114,0.289,0.118,0.403,0.008c0.004-0.003,0.006-0.006,0.01-0.01c0.118-0.113,0.122-0.299,0.009-0.417   c-0.005-0.005-0.009-0.009-0.013-0.013c-0.113-0.11-0.291-0.108-0.401,0.004c-0.004,0.004-0.007,0.007-0.01,0.011   c-0.115,0.114-0.115,0.298-0.002,0.412C50.762,175.641,50.763,175.641,50.765,175.644L50.765,175.644z M45.653,170.61   c0.121,0.113,0.311,0.106,0.422-0.015c0.001-0.001,0.001-0.001,0.002-0.002c0.11-0.118,0.109-0.3-0.003-0.417   c-0.121-0.11-0.306-0.109-0.426,0.004C45.539,170.303,45.542,170.488,45.653,170.61L45.653,170.61z M40.553,165.561   c0.11,0.114,0.289,0.118,0.403,0.008c0.004-0.003,0.006-0.006,0.01-0.01c0.11-0.118,0.109-0.3-0.003-0.417   c-0.113-0.117-0.297-0.12-0.414-0.008c-0.117,0.113-0.12,0.297-0.008,0.414C40.543,165.553,40.549,165.556,40.553,165.561z    M35.441,160.527c0.116,0.11,0.297,0.11,0.412-0.002c0.116-0.121,0.113-0.312-0.005-0.43c-0.118-0.114-0.306-0.11-0.419,0.007   c-0.114,0.118-0.11,0.306,0.007,0.419C35.438,160.524,35.44,160.525,35.441,160.527L35.441,160.527z M16.708,153.778   c0.076,0.047,0.176,0.028,0.228-0.045c0.046-0.079,0.02-0.18-0.058-0.226c-0.072-0.042-0.165-0.025-0.215,0.041   C16.616,153.625,16.636,153.725,16.708,153.778z M23.706,170.157c0.013,0.089,0.094,0.152,0.184,0.141   c0.09-0.013,0.154-0.097,0.139-0.188c-0.013-0.09-0.097-0.154-0.188-0.139c-0.004,0.001-0.007,0.001-0.011,0.002   C23.749,169.993,23.694,170.073,23.706,170.157z M23.034,166.29c0.013,0.084,0.094,0.142,0.178,0.128   c0.002,0,0.003-0.001,0.005-0.001c0.081-0.009,0.138-0.082,0.129-0.162c-0.001-0.007-0.002-0.014-0.004-0.022   c-0.008-0.087-0.085-0.151-0.172-0.144c-0.005,0-0.008,0.001-0.012,0.002C23.074,166.118,23.02,166.202,23.034,166.29z    M22.359,162.407c0.008,0.087,0.085,0.151,0.172,0.144c0.004,0,0.008-0.001,0.012-0.002c0.088-0.022,0.143-0.11,0.124-0.198   c-0.013-0.085-0.094-0.144-0.18-0.129c-0.085,0.013-0.143,0.094-0.129,0.18C22.358,162.403,22.359,162.406,22.359,162.407   L22.359,162.407z M21.686,158.538c0.013,0.084,0.094,0.142,0.178,0.128c0.002,0,0.003-0.001,0.005-0.001   c0.084-0.019,0.138-0.099,0.126-0.185c-0.014-0.085-0.096-0.142-0.181-0.128c-0.085,0.014-0.142,0.096-0.128,0.181   C21.686,158.536,21.686,158.537,21.686,158.538L21.686,158.538z M20.998,154.658c0.019,0.091,0.106,0.152,0.199,0.139   c0.084-0.019,0.138-0.099,0.126-0.184c-0.012-0.089-0.094-0.152-0.184-0.139C21.047,154.484,20.986,154.568,20.998,154.658   L20.998,154.658L20.998,154.658z M37.599,161.41c0.066,0.051,0.161,0.04,0.212-0.025c0.001-0.002,0.003-0.003,0.004-0.005   c0.051-0.074,0.038-0.175-0.032-0.233c-0.076-0.049-0.176-0.029-0.228,0.045C37.507,161.264,37.527,161.36,37.599,161.41   C37.598,161.409,37.599,161.41,37.599,161.41L37.599,161.41z M34.412,159.153c0.069,0.047,0.164,0.031,0.211-0.039   c0.001-0.002,0.002-0.003,0.003-0.005c0.051-0.073,0.038-0.174-0.032-0.232c-0.076-0.049-0.176-0.029-0.228,0.045   c-0.051,0.072-0.036,0.172,0.036,0.223C34.405,159.15,34.408,159.151,34.412,159.153L34.412,159.153z M31.223,156.884   c0.069,0.047,0.164,0.031,0.211-0.039c0.001-0.002,0.002-0.003,0.003-0.005c0.044-0.058,0.039-0.14-0.013-0.193   c-0.002-0.013-0.004-0.028-0.017-0.026c-0.015-0.012-0.029-0.01-0.044-0.022c-0.066-0.032-0.147-0.008-0.185,0.053   c-0.051,0.072-0.036,0.172,0.036,0.223C31.217,156.88,31.22,156.882,31.223,156.884L31.223,156.884z M16.492,163.942   c-0.017,0.086,0.037,0.171,0.123,0.192c0.09,0.016,0.177-0.038,0.203-0.126c0.017-0.086-0.037-0.171-0.123-0.192   C16.606,163.803,16.52,163.855,16.492,163.942z M17.336,160.1c-0.017,0.086,0.037,0.171,0.123,0.192   c0.084,0.025,0.173-0.024,0.199-0.107c0.002-0.006,0.004-0.012,0.005-0.018c0.017-0.086-0.037-0.171-0.123-0.192   C17.45,159.96,17.363,160.013,17.336,160.1L17.336,160.1z M18.182,156.271c-0.017,0.086,0.037,0.171,0.123,0.191   c0.089,0.013,0.175-0.039,0.203-0.125c0.017-0.086-0.037-0.171-0.123-0.192c-0.082-0.027-0.17,0.017-0.197,0.099   C18.186,156.253,18.183,156.262,18.182,156.271z M30.374,165.453c0.044,0.073,0.138,0.098,0.213,0.054l0.001-0.001   c0.077-0.05,0.1-0.153,0.05-0.23c-0.041-0.073-0.135-0.099-0.209-0.057c-0.002,0.001-0.004,0.002-0.005,0.004   C30.347,165.274,30.324,165.377,30.374,165.453z M28.277,162.13c0.047,0.077,0.148,0.101,0.224,0.053   c0.001-0.001,0.002-0.001,0.003-0.002c0.072-0.053,0.093-0.151,0.05-0.23c-0.051-0.072-0.15-0.094-0.228-0.052   C28.25,161.95,28.228,162.052,28.277,162.13L28.277,162.13z M26.18,158.806c0.047,0.077,0.148,0.101,0.224,0.053   c0.001-0.001,0.002-0.001,0.003-0.002c0.077-0.049,0.1-0.152,0.05-0.23c-0.051-0.073-0.15-0.094-0.228-0.052   C26.159,158.631,26.137,158.727,26.18,158.806L26.18,158.806z M24.097,155.48c0.047,0.077,0.148,0.101,0.224,0.053   c0.001-0.001,0.002-0.001,0.003-0.002c0.073-0.051,0.091-0.152,0.039-0.224c-0.001-0.001-0.001-0.002-0.002-0.003   c-0.038-0.068-0.123-0.091-0.191-0.055c-0.007,0.005-0.014,0.009-0.02,0.014c-0.073,0.038-0.1,0.127-0.063,0.199   C24.09,155.468,24.093,155.474,24.097,155.48L24.097,155.48z M28.273,176.519c0.08,0.122,0.243,0.156,0.366,0.076   c0.001-0.001,0.002-0.001,0.003-0.002c0.12-0.083,0.151-0.248,0.068-0.368c-0.078-0.113-0.231-0.148-0.35-0.079   c-0.126,0.073-0.168,0.235-0.094,0.36C28.268,176.51,28.271,176.515,28.273,176.519z M24.84,170.989   c0.065,0.121,0.215,0.166,0.335,0.103c0.007-0.004,0.013-0.008,0.02-0.013c0.126-0.073,0.168-0.235,0.094-0.36   c-0.003-0.005-0.005-0.009-0.008-0.013c-0.078-0.126-0.243-0.165-0.37-0.088c-0.122,0.078-0.157,0.24-0.079,0.362   C24.835,170.982,24.837,170.986,24.84,170.989L24.84,170.989z M21.393,165.475c0.08,0.124,0.243,0.162,0.37,0.088   c0.127-0.08,0.165-0.247,0.085-0.373c-0.078-0.125-0.243-0.164-0.369-0.088C21.358,165.182,21.32,165.347,21.393,165.475   L21.393,165.475z M17.963,159.957c0.084,0.118,0.242,0.156,0.37,0.088c0.121-0.084,0.158-0.245,0.086-0.373   c-0.073-0.125-0.233-0.167-0.359-0.094c-0.004,0.002-0.007,0.005-0.011,0.006C17.924,159.664,17.886,159.83,17.963,159.957   L17.963,159.957z M35.548,165.072c0.12,0.086,0.286,0.058,0.372-0.06c0.086-0.12,0.058-0.286-0.06-0.372   c-0.113-0.087-0.274-0.067-0.361,0.046c-0.001,0.002-0.003,0.003-0.004,0.005C35.407,164.811,35.432,164.978,35.548,165.072   L35.548,165.072z M30.185,161.114c0.019,0.146,0.154,0.248,0.299,0.228c0.076-0.01,0.142-0.051,0.184-0.114   c0.033-0.057,0.047-0.121,0.043-0.187c-0.002-0.013-0.002-0.013-0.017-0.026c-0.005-0.067-0.039-0.128-0.091-0.168   c-0.122-0.084-0.289-0.054-0.376,0.066C30.192,160.975,30.178,161.046,30.185,161.114L30.185,161.114z M25.025,157.519   c0.091,0.066,0.216,0.059,0.3-0.013l0.013-0.002c0.027-0.004,0.05-0.035,0.061-0.05c0.087-0.12,0.06-0.288-0.059-0.374   c-0.003-0.002-0.005-0.004-0.007-0.005c-0.12-0.069-0.273-0.042-0.363,0.065C24.887,157.259,24.909,157.427,25.025,157.519   L25.025,157.519z M19.771,153.743c0.122,0.084,0.289,0.054,0.376-0.066c0.082-0.124,0.053-0.291-0.066-0.38   c-0.122-0.084-0.289-0.054-0.376,0.066C19.623,153.487,19.652,153.654,19.771,153.743L19.771,153.743z"/>     <linearGradient id="neck-2_1_UBWZBT20yRPqIXo7vSscG" gradientUnits="userSpaceOnUse" x1="4164.7856" y1="2635.4067" x2="4164.7856" y2="2080.7126" gradientTransform="matrix(0.0741 0 0 0.0741 -230.5491 -118.0138)">   <stop offset="0" stop-color="#FFBEB6"/>   <stop offset="1" stop-color="#F2A19C"/>  </linearGradient>  <path id="neck-2UBWZBT20yRPqIXo7vSscG" fill="url(#neck-2_1_UBWZBT20yRPqIXo7vSscG)" d="M72.177,41.602c0,0-0.421,8.017-2.743,11.834c0,0,11.232,2.216,16.26,4.149   l0.995-10.29L72.177,41.602z"/>  <path id="face-2UBWZBT20yRPqIXo7vSscG" fill="#FFBEB6" d="M93.053,47.611c6.254-2.551,9.385-8.753,10.729-8.567c1.351,0.176,4.321-0.128,4.664-1.543   c0.328-1.41-1.418-6.61-1.801-11.578c-0.039-0.458-0.047-0.919-0.027-1.38c0.001-0.024,0.006-0.032-0.007-0.051l0.011-0.255   c0.008-0.316,0.012-0.86-0.024-1.569c-3.589,1.768-6.907,2.25-8.49,1.422c-4.489-2.339-5.03,0.615-9.474,4.19   c-4.46,3.58-8.383,1.528-14.258,0.085c-5.88-1.434-6.12,4.478-3.87,6.531c2.245,2.06,5.043,3.228,3.662,5.599   c-0.503,0.603-1.212,0.997-1.99,1.109l0.596,0.498c0.189,0.157,0.384,0.305,0.588,0.444l2.827,1.927   C81.282,47.904,87.191,50.01,93.053,47.611z"/>  <path id="hair-2UBWZBT20yRPqIXo7vSscG" fill="#23286B" d="M57.317,28.228c-9.661-28.244,5.785-27.53,16.936-27.53c12.42,0,18.118-0.233,18.118-0.233   L120.038,0c0.463,7.196-2.459,14.195-7.901,18.924c5.946-4.146,9.493-10.935,9.502-18.186c0.011-0.5,0.79-0.521,0.78-0.018   c-0.22,9.986-6.012,18.163-14.945,21.489c-3.916,2.136-7.655,2.769-9.367,1.877c-4.485-2.338-5.028,0.622-9.478,4.198   c-4.451,3.576-8.375,1.529-14.255,0.087c-5.878-1.442-6.121,4.472-3.874,6.53c2.248,2.056,5.051,3.222,3.668,5.596   C72.785,42.87,62.934,44.651,57.317,28.228z"/>     <linearGradient id="sweater-2_1_UBWZBT20yRPqIXo7vSscG" gradientUnits="userSpaceOnUse" x1="3694.187" y1="3055.3677" x2="5439.1665" y2="5180.3013" gradientTransform="matrix(0.0741 0 0 0.0741 -230.5491 -118.0138)">   <stop offset="0" stop-color="#A1C3FC"/>   <stop offset="0.6955" stop-color="#81AEF2"/>   <stop offset="1" stop-color="#78A9EF"/>  </linearGradient>  <path id="sweater-2UBWZBT20yRPqIXo7vSscG" fill="url(#sweater-2_1_UBWZBT20yRPqIXo7vSscG)" d="M69.626,53.19c0,0-14.965,7.42-30.176,27.043s-12.558,27.692-20.91,39.313   c-8.352,11.621-22.495,23.381-15.405,42.628c0,0,40.915,28.197,92.472,8.814L85.694,57.586   C80.486,55.622,75.106,54.15,69.626,53.19z"/>  <path id="R_sleeve-2UBWZBT20yRPqIXo7vSscG" fill="#A1C3FC" d="M85.693,57.586c0,0,7.023,30.167,17.674,48.31s16.051,23.417,34.066,25.124   c14.061,1.332,26.804,1.823,26.804,1.823l12.979,59.459c0,0-19.936,6.496-34.998-2.697c-16.941-10.339-25.206-7.051-35-5.5   c-9.793,1.552-32.472-0.629-42.33-31.198s-8.365-56.814,4.547-99.47l0,0"/>  <path id="eye-2UBWZBT20yRPqIXo7vSscG" fill="#1C2868" d="M109.713,27.893c-1.284,1.931-3.889,2.455-5.82,1.172c-0.699-0.465-1.242-1.129-1.561-1.906   c-0.246-0.589,0.629-1.085,0.878-0.487c0.607,1.659,2.441,2.511,4.099,1.905c0.625-0.229,1.164-0.647,1.539-1.196   C109.221,26.858,110.087,27.365,109.713,27.893z"/> </g> </g><g transform="rotate(354.03964591312075 377.9475 348.60375)"><g transform="translate(406.1175 336.47499999999997) scale(-0.35212499999999997 0.3465357142857143)" ><defs>
    <clipPath id="clipPath_qlRCCRGE0Ynxrs8QFrzZ-">
    <rect x="0" y="0" width="160" height="70" />
    </clipPath></defs> <polygon fill="rgb(241,239,34)" points="130.623,66.946 0,66.946 29.377,31.231 160,31.231 "/> <polygon fill="rgb(220,226,34)" points="130.623,59.562 0,59.562 29.377,23.847 160,23.847 "/> <polygon fill="rgb(241,239,34)" points="130.623,53.484 0,53.484 29.377,17.769 160,17.769 "/> <polygon fill="rgb(220,226,34)" points="130.623,46.101 0,46.101 29.377,10.386 160,10.386 "/> <polygon fill="rgb(241,239,34)" points="130.623,38.562 0,38.562 29.377,2.847 160,2.847 "/> <path fill="rgb(217,224,33)" d="M99.634,20.705c-6.399,7.78-20.376,14.085-31.22,14.085s-14.447-6.306-8.048-14.085  C66.764,12.926,80.742,6.62,91.586,6.62S106.033,12.925,99.634,20.705z"/> <g>  <path fill="rgb(217,224,33)" d="M105.904,26.992l2.893-3.48c3.317,0,4.565-1.378,6.148-3.304c0.366-0.445,0.429-0.72,0.423-0.783   c-0.059-0.124-0.732-0.672-2.687-0.672l1.904-2.78c2.824,0,3.217,0.502,3.95,2.154c0.338,0.764,0.335,2.284-1.224,4.18   C115.15,24.934,110.139,26.992,105.904,26.992z"/> </g> <g>  <path fill="rgb(217,224,33)" d="M117.37,26.992l2.893-3.48c3.317,0,4.565-1.378,6.149-3.305c0.366-0.444,0.429-0.719,0.422-0.782   c-0.059-0.124-0.731-0.672-2.687-0.672l1.904-2.78c2.824,0,3.241,0.053,3.974,1.705c0.339,0.762,0.311,2.732-1.248,4.628   C126.616,24.934,121.605,26.992,117.37,26.992z"/> </g> <g>  <path fill="rgb(217,224,33)" d="M29.612,26.992l2.379-2.852c3.317,0,5.077-2.006,6.661-3.933c0.366-0.444,0.429-0.72,0.423-0.782   c-0.059-0.124-0.732-0.672-2.687-0.672l1.564-2.87c2.823,0,3.821,0.591,4.554,2.243c0.339,0.762,0.07,2.283-1.49,4.18   C38.858,24.934,33.846,26.992,29.612,26.992z"/> </g> <g>  <path fill="rgb(217,224,33)" d="M41.079,26.992l2.379-2.852c3.317,0,4.983-1.215,6.566-3.141c0.366-0.444,0.535-1.514,0.518-1.573   c-0.037-0.132-0.732-0.672-2.687-0.672l1.564-2.869c2.823,0,3.673,0.142,4.406,1.795c0.339,0.762,0.218,2.732-1.342,4.628   C50.323,24.934,45.313,26.992,41.079,26.992z"/> </g> <polygon fill="rgb(217,224,33)" points="145.461,12.94 135.318,12.94 140.347,6.828 150.489,6.828 "/> <polygon fill="rgb(217,224,33)" points="126.989,35.397 116.847,35.397 121.874,29.285 132.017,29.285 "/> <polygon fill="rgb(217,224,33)" points="36.976,12.94 26.833,12.94 31.861,6.828 42.003,6.828 "/> <polygon fill="rgb(217,224,33)" points="18.504,35.397 8.361,35.397 13.389,29.285 23.532,29.285 "/> <g>  <path fill="rgb(236,236,34)" d="M74.347,29.192c-4.281,0-7.214-1.296-8.257-3.646c-0.46-1.039-0.902-3.186,1.324-5.891   c3.431-4.171,11.442-7.438,18.238-7.438c4.282,0,7.214,1.296,8.258,3.646c0.46,1.038,0.902,3.186-1.323,5.891   C89.155,25.926,81.144,29.192,74.347,29.192z M85.652,15.447c-5.792,0-13.063,2.888-15.875,6.306   c-0.473,0.574-1.212,1.654-0.864,2.439c0.39,0.88,2.222,1.768,5.433,1.768c5.793,0,13.064-2.888,15.876-6.306   c0.472-0.574,1.212-1.654,0.864-2.439C90.695,16.336,88.863,15.447,85.652,15.447z"/> </g> <polygon fill="rgb(193,209,33)" points="102.811,0 82.077,0 55.64,36.615 76.375,36.615 "/> <rect x="55.64" y="36.615" fill="rgb(174,197,32)" width="20.735" height="33.385"/> </g></g>
              </svg>