<?xml version="1.0" encoding="iso-8859-1" ?>
              <svg
                version="1.1"
                xmlns="http://www.w3.org/2000/svg"
                xmlns:xlink="http://www.w3.org/1999/xlink"
                viewBox="0 0 939 626"
                width="939"
                height="626"
              >
                <g transform="translate(203.45 215.96999999999997) scale(1.022914240637091 1.0250785105428442)" ><defs>
    <clipPath id="clipPath_xkFNxkvKmUXjjQ5--WUDw">
    <rect x="0" y="0" width="532.42" height="222.9" />
    </clipPath></defs> <linearGradient id="rounded_rect_1_xkFNxkvKmUXjjQ5--WUDw" gradientUnits="userSpaceOnUse" x1="262.3688" y1="149.7617" x2="298.9362" y2="451.4425" gradientTransform="matrix(1 0 0 1 0 -70)">  <stop offset="0.0898" stop-color="rgb(193,190,190)"/>  <stop offset="0.8178" stop-color="rgb(169,167,168)"/> </linearGradient> <path id="rounded_rectxkFNxkvKmUXjjQ5--WUDw" fill="url(#rounded_rect_1_xkFNxkvKmUXjjQ5--WUDw)" d="M532.42,111.45c0.006,61.547-49.883,111.444-111.43,111.45  c-0.007,0-0.013,0-0.02,0H111.45C49.898,222.9,0,173.002,0,111.45S49.898,0,111.45,0h309.52  C482.522,0.001,532.418,49.898,532.42,111.45z"/> </g><g transform="translate(294.22 40.69) scale(1.0322289454964566 1.0288789819700346)" ><defs>
    <clipPath id="clipPath_Zu2I6I9Ayms-N9THMqxcV">
    <rect x="0" y="0" width="222.114" height="531.615" />
    </clipPath></defs> <g>     <linearGradient id="L_trousers_1_Zu2I6I9Ayms-N9THMqxcV" gradientUnits="userSpaceOnUse" x1="236.2815" y1="352.4206" x2="106.3312" y2="350.6282" gradientTransform="matrix(1 0 0 1 0 -70)">   <stop offset="0" stop-color="rgb(35,40,107)"/>   <stop offset="0.4316" stop-color="rgb(29,34,95)"/>   <stop offset="1" stop-color="rgb(21,26,79)"/>  </linearGradient>  <path id="L_trousersZu2I6I9Ayms-N9THMqxcV" fill="url(#L_trousers_1_Zu2I6I9Ayms-N9THMqxcV)" d="M177.073,392.704h-44.09c-6.68-11.38,5.06-26.61-0.77-45.27   c-6.15-19.7-6.43-25.08-40.71-78.26c-34.29-53.22-40.76-76.55-40.31-80.24c2.356-0.799,4.774-1.401,7.23-1.8   c11.71-1.88,37.55-7.07,54.45-17.33c0.27-0.16,0.54-0.32,0.8-0.49l0.91-0.28c0.05,0.26,0.11,0.52,0.17,0.77   c5.34,24.54,19.25,47.37,33.79,70.67c14.69,23.56,27.22,44.55,41.14,75.1C194.613,326.384,187.533,349.254,177.073,392.704z"/>  <path id="R_trousersZu2I6I9Ayms-N9THMqxcV" fill="rgb(35,40,107)" d="M137.748,253.787c-6.146-26.19-15.184-47.973-11.819-72.303l-0.964-0.038   c-19.735,4.238-46.915,0.608-58.968-1.476c-2.491-0.425-5.012-0.651-7.538-0.677c-1.675,3.218-13.891,29.913,11.585,86.133   c27.238,60.096,11.621,70.229,6.167,89.5c-5.472,19.256-8.29,30.989-5.112,48.533c3.178,17.544-5.408,13.505-7.791,36.712   c-2.112,20.716,0.384,42.212,1.283,46.583h35.735c11.85-38.121,47.892-126.306,48.178-147.487   C148.872,312.04,143.878,279.995,137.748,253.787z"/>     <linearGradient id="L_hand_1_Zu2I6I9Ayms-N9THMqxcV" gradientUnits="userSpaceOnUse" x1="192.5676" y1="250.3229" x2="151.6557" y2="227.1754" gradientTransform="matrix(1 0 0 1 0 -70)">   <stop offset="0" stop-color="#FFBEB6"/>   <stop offset="1" stop-color="#F2A19C"/>  </linearGradient>  <path id="L_handZu2I6I9Ayms-N9THMqxcV" fill="url(#L_hand_1_Zu2I6I9Ayms-N9THMqxcV)" d="M139.812,150c0,0,30.177,19.547,45.952,13.374s30.863,0,36.35,7.201H125.41   l-5.144-13.031l12.688-8.573L139.812,150"/>     <linearGradient id="handle_1_Zu2I6I9Ayms-N9THMqxcV" gradientUnits="userSpaceOnUse" x1="48.6563" y1="382.9128" x2="102.6756" y2="382.9128" gradientTransform="matrix(1 0 0 1 0 -70)">   <stop offset="0" stop-color="#A1C3FC"/>   <stop offset="0.6955" stop-color="#81AEF2"/>   <stop offset="1" stop-color="#78A9EF"/>  </linearGradient>  <path id="handleZu2I6I9Ayms-N9THMqxcV" fill="url(#handle_1_Zu2I6I9Ayms-N9THMqxcV)" d="M50.906,326.511c0.868-11.458,9.172-21.867,20.481-24.587   c11.329-2.725,23.39,2.953,29.344,12.728c1.254,2.058,4.498,0.176,3.238-1.893c-6.848-11.244-20.596-17.569-33.579-14.451   c-13.001,3.122-22.243,15.117-23.235,28.203C46.973,328.918,50.724,328.906,50.906,326.511L50.906,326.511z"/>  <path id="textureZu2I6I9Ayms-N9THMqxcV" opacity="0.65" fill="#FFFFFF" enable-background="new    " d="M109.084,226.469   c0.129,0.056,0.279-0.003,0.334-0.132s-0.003-0.279-0.132-0.334s-0.279,0.003-0.334,0.132l0,0   C108.896,226.263,108.955,226.413,109.084,226.469L109.084,226.469z M111.512,220.746c0.134,0.053,0.287-0.005,0.352-0.135   c0.049-0.133-0.017-0.281-0.149-0.332c-0.118-0.06-0.263-0.013-0.323,0.105c-0.004,0.009-0.008,0.018-0.012,0.027   C111.324,220.54,111.383,220.69,111.512,220.746L111.512,220.746z M113.957,215.021c0.129,0.056,0.278-0.003,0.334-0.132l0,0   c0.053-0.134-0.005-0.287-0.134-0.352c-0.138-0.046-0.289,0.019-0.349,0.152C113.759,214.822,113.825,214.97,113.957,215.021   L113.957,215.021z M116.385,209.298c0.129,0.056,0.278-0.003,0.334-0.132l0,0c0.055-0.134-0.004-0.288-0.134-0.352   c-0.129-0.056-0.278,0.003-0.334,0.132l0,0C116.196,209.081,116.255,209.235,116.385,209.298L116.385,209.298z M100.198,216.348   c0.096,0.099,0.254,0.102,0.353,0.006c0.099-0.096,0.102-0.254,0.006-0.353c-0.096-0.099-0.254-0.102-0.353-0.006   c-0.099,0.086-0.109,0.236-0.024,0.335C100.186,216.336,100.191,216.342,100.198,216.348L100.198,216.348z M104.637,211.996   c0.075,0.079,0.195,0.093,0.286,0.033l0.017-0.002c0.019,0,0.038-0.009,0.05-0.024c0.061-0.056,0.089-0.139,0.076-0.221   c-0.009-0.056-0.034-0.108-0.072-0.149c-0.096-0.098-0.253-0.101-0.353-0.006c-0.103,0.096-0.109,0.257-0.013,0.36   C104.63,211.989,104.633,211.992,104.637,211.996L104.637,211.996z M109.076,207.643c0.1,0.093,0.257,0.088,0.35-0.011   c0.099-0.095,0.103-0.253,0.008-0.353s-0.253-0.103-0.353-0.008c-0.001,0-0.001,0.001-0.002,0.001   c-0.103,0.096-0.109,0.257-0.013,0.36C109.069,207.637,109.072,207.64,109.076,207.643L109.076,207.643z M121.946,225.665   c0.009,0.142,0.122,0.255,0.264,0.264c0.146,0,0.264-0.118,0.264-0.264s-0.118-0.264-0.264-0.264   C122.068,225.41,121.955,225.523,121.946,225.665L121.946,225.665z M122.003,219.447c0.004,0.14,0.121,0.251,0.261,0.247   c0,0,0,0,0.001,0c0.135,0.011,0.254-0.089,0.266-0.225c0.001-0.007,0.001-0.014,0.001-0.022c-0.003-0.144-0.119-0.26-0.264-0.264   C122.125,219.192,122.012,219.305,122.003,219.447L122.003,219.447z M75.179,227.803c0.171,0.204,0.475,0.232,0.68,0.061   c0.004-0.004,0.009-0.008,0.013-0.011c0.201-0.171,0.225-0.472,0.054-0.672c-0.001-0.001-0.002-0.002-0.003-0.003   c-0.171-0.204-0.475-0.232-0.68-0.061c-0.004,0.004-0.009,0.008-0.013,0.011c-0.201,0.171-0.225,0.472-0.054,0.672   C75.177,227.801,75.178,227.802,75.179,227.803z M84.123,220.128c0.178,0.205,0.488,0.227,0.693,0.049s0.227-0.488,0.049-0.693   c-0.171-0.201-0.472-0.225-0.672-0.054c-0.001,0.001-0.002,0.002-0.003,0.003C83.985,219.609,83.956,219.915,84.123,220.128   L84.123,220.128z M93.084,212.45c0.178,0.205,0.488,0.227,0.693,0.049c0.205-0.178,0.227-0.488,0.049-0.693   c-0.178-0.205-0.488-0.227-0.693-0.049c-0.204,0.171-0.232,0.475-0.061,0.679C93.076,212.441,93.08,212.446,93.084,212.45   L93.084,212.45z M110.399,257.561c-0.015,0.269,0.187,0.5,0.456,0.52c0.258,0.03,0.491-0.155,0.52-0.412   c0.001-0.009,0.002-0.018,0.002-0.026c0.015-0.269-0.188-0.5-0.456-0.52C110.656,257.099,110.422,257.295,110.399,257.561   L110.399,257.561L110.399,257.561z M111.291,245.813c-0.019,0.27,0.183,0.504,0.453,0.523c0.269,0.019,0.504-0.183,0.523-0.453   c0-0.002,0-0.004,0-0.006c0.023-0.265-0.173-0.499-0.438-0.523c0,0,0,0-0.001,0C111.557,245.344,111.323,245.544,111.291,245.813z    M112.198,234.045c-0.022,0.264,0.174,0.497,0.439,0.519c0.006,0,0.012,0.001,0.017,0.001c0.258,0.03,0.491-0.155,0.52-0.412   c0.001-0.009,0.002-0.018,0.002-0.026c0.011-0.271-0.189-0.505-0.458-0.538C112.449,233.574,112.218,233.777,112.198,234.045z    M113.09,222.297c-0.018,0.27,0.186,0.503,0.456,0.52s0.503-0.186,0.52-0.456c0.023-0.265-0.173-0.499-0.438-0.523h-0.001   c-0.269-0.027-0.509,0.169-0.536,0.438C113.091,222.284,113.09,222.29,113.09,222.297z M113.997,210.529   c-0.024,0.264,0.17,0.499,0.435,0.523c0.264,0.024,0.499-0.17,0.523-0.435c0.001-0.007,0.001-0.014,0.001-0.021   c0.026-0.262-0.166-0.496-0.428-0.522c-0.004,0-0.007-0.001-0.011-0.001C114.248,210.058,114.017,210.26,113.997,210.529   L113.997,210.529z M88.058,245.894c0.242,0.113,0.53,0.008,0.643-0.234s0.008-0.53-0.234-0.643   c-0.237-0.111-0.519-0.013-0.637,0.221C87.716,245.482,87.817,245.773,88.058,245.894L88.058,245.894z M93.388,235.371   c0.242,0.113,0.53,0.008,0.643-0.234s0.008-0.53-0.234-0.643c-0.237-0.111-0.519-0.013-0.637,0.221   C93.046,234.959,93.147,235.25,93.388,235.371L93.388,235.371z M98.72,224.866c0.248,0.117,0.543,0.012,0.661-0.236   c0.113-0.239,0.019-0.525-0.215-0.65c-0.242-0.129-0.542-0.038-0.671,0.204s-0.038,0.542,0.204,0.671   C98.706,224.859,98.713,224.862,98.72,224.866z M104.047,214.326c0.234,0.126,0.526,0.037,0.652-0.197   c0.002-0.004,0.005-0.009,0.007-0.013c0.125-0.236,0.035-0.529-0.201-0.654s-0.529-0.035-0.654,0.201   c-0.004,0.007-0.007,0.014-0.011,0.022c-0.123,0.223-0.043,0.504,0.18,0.627C104.029,214.317,104.038,214.321,104.047,214.326   L104.047,214.326z M132.777,249.429c0.089,0.254,0.365,0.39,0.621,0.305c0.251-0.08,0.389-0.348,0.309-0.598   c-0.001-0.002-0.001-0.004-0.002-0.005c-0.065-0.25-0.32-0.4-0.57-0.336c-0.012,0.003-0.024,0.007-0.036,0.011   C132.847,248.899,132.707,249.169,132.777,249.429L132.777,249.429z M129.112,238.213c0.093,0.252,0.363,0.392,0.623,0.322   c0.254-0.089,0.39-0.365,0.305-0.621c-0.084-0.254-0.358-0.392-0.612-0.308c-0.003,0.001-0.006,0.002-0.009,0.003   c-0.251,0.08-0.389,0.348-0.309,0.598C129.111,238.209,129.112,238.211,129.112,238.213L129.112,238.213z M125.449,227.014   c0.074,0.247,0.334,0.388,0.582,0.314c0.007-0.002,0.015-0.005,0.022-0.007c0.257-0.074,0.404-0.343,0.33-0.6   c-0.002-0.008-0.005-0.016-0.008-0.024c-0.087-0.256-0.365-0.392-0.621-0.305S125.362,226.758,125.449,227.014L125.449,227.014z    M121.767,215.8c0.089,0.254,0.365,0.39,0.621,0.305c0.247-0.074,0.388-0.334,0.314-0.582c-0.002-0.007-0.005-0.015-0.007-0.022   c-0.08-0.255-0.349-0.399-0.606-0.325C121.832,215.264,121.689,215.54,121.767,215.8L121.767,215.8z M77.883,240.395   c0.202,0.127,0.468,0.068,0.598-0.132c0.13-0.201,0.072-0.469-0.129-0.599s-0.469-0.072-0.599,0.129   c-0.001,0.001-0.001,0.002-0.002,0.003C77.625,239.999,77.684,240.265,77.883,240.395L77.883,240.395z M83.516,231.504   c0.202,0.126,0.468,0.068,0.598-0.132c0.135-0.198,0.084-0.467-0.114-0.602c-0.198-0.135-0.467-0.084-0.602,0.114   c-0.005,0.007-0.01,0.015-0.014,0.022c-0.13,0.195-0.078,0.458,0.116,0.588C83.505,231.497,83.511,231.501,83.516,231.504   L83.516,231.504z M88.974,222.354c0.017,0.108,0.081,0.203,0.175,0.258c0.202,0.126,0.468,0.068,0.598-0.132   c0.133-0.205,0.075-0.48-0.13-0.613c-0.001-0.001-0.003-0.002-0.004-0.003c-0.122-0.079-0.276-0.091-0.409-0.034l-0.017,0.002   c-0.077,0.03-0.139,0.088-0.172,0.163C88.942,222.101,88.926,222.236,88.974,222.354L88.974,222.354z M94.783,213.721   c0.206,0.128,0.478,0.065,0.606-0.142c0.128-0.206,0.065-0.478-0.142-0.606c-0.202-0.127-0.469-0.068-0.598,0.132   c-0.133,0.205-0.075,0.48,0.131,0.613C94.78,213.719,94.782,213.72,94.783,213.721L94.783,213.721z M121.339,247.686   c0.062,0.236,0.298,0.382,0.537,0.334c0.227-0.049,0.372-0.272,0.323-0.499c-0.001-0.006-0.003-0.012-0.004-0.018   c-0.048-0.234-0.277-0.386-0.512-0.338c-0.003,0.001-0.005,0.001-0.008,0.002C121.444,247.225,121.297,247.452,121.339,247.686   L121.339,247.686z M119.05,237.432c0.056,0.23,0.287,0.372,0.517,0.319c0.227-0.049,0.372-0.272,0.323-0.499   c-0.001-0.006-0.003-0.012-0.004-0.018c-0.048-0.235-0.277-0.386-0.512-0.338c-0.003,0.001-0.005,0.001-0.008,0.002   C119.134,236.961,118.994,237.198,119.05,237.432L119.05,237.432z M116.74,227.145c0.048,0.234,0.277,0.386,0.512,0.338   c0.003-0.001,0.005-0.001,0.008-0.002c0.222-0.041,0.369-0.255,0.328-0.477c-0.003-0.013-0.006-0.027-0.009-0.04   c-0.048-0.235-0.277-0.386-0.512-0.338c-0.003,0.001-0.005,0.001-0.008,0.002C116.831,226.688,116.691,226.916,116.74,227.145   L116.74,227.145z M114.434,216.893c0.061,0.234,0.3,0.375,0.534,0.315c0.227-0.059,0.368-0.286,0.319-0.516   c-0.059-0.231-0.285-0.377-0.52-0.336C114.531,216.419,114.385,216.654,114.434,216.893L114.434,216.893z M98.798,242.75   c-0.034,0.237,0.128,0.458,0.365,0.497c0.234,0.042,0.457-0.114,0.499-0.348c0.037-0.237-0.116-0.463-0.35-0.517   C99.069,242.345,98.841,242.508,98.798,242.75L98.798,242.75z M100.61,232.375c-0.048,0.226,0.096,0.447,0.322,0.495   c0.009,0.002,0.017,0.003,0.026,0.005c0.234,0.042,0.457-0.114,0.499-0.348c0.037-0.237-0.116-0.463-0.35-0.517   C100.87,231.976,100.649,232.139,100.61,232.375L100.61,232.375z M102.406,222.003c-0.044,0.234,0.11,0.458,0.344,0.502   s0.458-0.11,0.502-0.344c0-0.002,0.001-0.004,0.001-0.006c0.04-0.234-0.117-0.457-0.351-0.497   C102.67,221.618,102.449,221.772,102.406,222.003z M104.201,211.631c-0.042,0.234,0.114,0.457,0.348,0.499   c0.134,0.029,0.273-0.009,0.374-0.102l0.017-0.002c0.065-0.068,0.108-0.153,0.126-0.245c0.034-0.237-0.128-0.458-0.365-0.497   C104.467,211.241,104.243,211.397,104.201,211.631L104.201,211.631z M103.072,223.446c0.004,0.14,0.121,0.251,0.261,0.247   c0.14-0.004,0.251-0.121,0.247-0.261c-0.004-0.14-0.121-0.251-0.261-0.247C103.178,223.188,103.068,223.305,103.072,223.446   C103.072,223.445,103.072,223.446,103.072,223.446L103.072,223.446z M102.885,217.242c0.012,0.143,0.135,0.251,0.279,0.245   c0.14-0.004,0.251-0.121,0.247-0.261l0,0c0.001-0.135-0.107-0.246-0.242-0.247c-0.006,0-0.013,0-0.019,0.001   c-0.144-0.002-0.262,0.113-0.264,0.257C102.885,217.238,102.885,217.24,102.885,217.242L102.885,217.242z M102.715,211.036   c0.003,0.14,0.119,0.252,0.259,0.249c0.14-0.003,0.252-0.119,0.249-0.259c0-0.001,0-0.003,0-0.004   c0.002-0.135-0.107-0.246-0.242-0.247c-0.007,0-0.013,0-0.02,0.001C102.822,210.778,102.711,210.895,102.715,211.036   C102.715,211.035,102.715,211.035,102.715,211.036L102.715,211.036z M91.05,218.226c0.133,0.04,0.274-0.024,0.332-0.149   c0.053-0.128-0.008-0.274-0.136-0.327c-0.004-0.002-0.009-0.004-0.013-0.005c-0.124-0.054-0.269,0.002-0.323,0.127   c-0.003,0.007-0.006,0.015-0.009,0.023C90.852,218.027,90.918,218.175,91.05,218.226L91.05,218.226z M93.274,212.425   c0.133,0.04,0.274-0.024,0.332-0.149c0.046-0.133-0.02-0.278-0.149-0.332c-0.123-0.058-0.269-0.006-0.328,0.117   c-0.002,0.005-0.005,0.01-0.007,0.016c-0.057,0.132,0.003,0.286,0.135,0.343C93.263,212.421,93.269,212.423,93.274,212.425   L93.274,212.425z M114.668,217.601c0.056,0.129,0.205,0.188,0.334,0.132s0.188-0.205,0.132-0.334   c-0.044-0.124-0.179-0.189-0.303-0.145c-0.011,0.004-0.021,0.008-0.031,0.013c-0.127,0.053-0.188,0.199-0.135,0.326   C114.666,217.596,114.667,217.599,114.668,217.601L114.668,217.601z M112.125,211.938c0.063,0.131,0.219,0.189,0.351,0.129   c0.123-0.059,0.175-0.207,0.115-0.33c0-0.001-0.001-0.001-0.001-0.002c-0.044-0.124-0.179-0.189-0.303-0.145   c-0.011,0.004-0.021,0.008-0.031,0.013c-0.127,0.053-0.188,0.199-0.135,0.326C112.122,211.932,112.123,211.935,112.125,211.938   L112.125,211.938z M103.473,225.68c0.024,0.149,0.164,0.25,0.312,0.226c0.011-0.002,0.022-0.004,0.033-0.008   c0.155-0.036,0.252-0.19,0.218-0.346c-0.041-0.154-0.189-0.255-0.348-0.236c-0.159,0.04-0.256,0.201-0.216,0.361   C103.472,225.679,103.473,225.679,103.473,225.68z M101.976,218.752c0.04,0.159,0.201,0.256,0.361,0.217   c0.001,0,0.001,0,0.002-0.001c0.155-0.036,0.252-0.19,0.218-0.346c-0.041-0.154-0.189-0.255-0.348-0.236   C102.05,218.431,101.949,218.589,101.976,218.752L101.976,218.752z M100.511,211.802c0.016,0.151,0.152,0.261,0.304,0.244   c0.015-0.002,0.03-0.004,0.044-0.008c0.155-0.036,0.252-0.19,0.218-0.346c-0.041-0.154-0.189-0.255-0.348-0.235   C100.575,211.493,100.478,211.647,100.511,211.802L100.511,211.802z M88.974,222.354c0.034,0.025,0.072,0.044,0.113,0.055   c0.156,0.03,0.306-0.072,0.336-0.228c0.001-0.003,0.001-0.007,0.002-0.01c0.026-0.154-0.07-0.301-0.221-0.34l-0.017,0.002   c-0.156-0.03-0.306,0.072-0.336,0.228c-0.001,0.003-0.001,0.007-0.002,0.01C88.826,222.183,88.877,222.296,88.974,222.354   L88.974,222.354z M90.143,215.091c-0.034,0.154,0.063,0.306,0.217,0.339c0.001,0,0.003,0.001,0.004,0.001   c0.159,0.029,0.314-0.067,0.358-0.223c0.022-0.162-0.082-0.315-0.241-0.355C90.322,214.826,90.171,214.933,90.143,215.091   L90.143,215.091z M91.422,208.13c-0.028,0.159,0.079,0.31,0.238,0.338s0.31-0.079,0.338-0.238s-0.079-0.31-0.238-0.338l0,0   c-0.156-0.03-0.306,0.072-0.336,0.228C91.423,208.124,91.422,208.127,91.422,208.13L91.422,208.13z M115.465,216.845   c0.091,0.133,0.273,0.166,0.405,0.074c0.003-0.002,0.006-0.004,0.008-0.006c0.128-0.09,0.16-0.267,0.071-0.396   c-0.078-0.133-0.249-0.177-0.382-0.099c-0.006,0.003-0.011,0.007-0.017,0.011C115.414,216.521,115.376,216.706,115.465,216.845   L115.465,216.845z M111.456,211.006c0.08,0.127,0.248,0.165,0.376,0.085c0.007-0.005,0.014-0.009,0.021-0.015   c0.133-0.078,0.177-0.249,0.099-0.382c-0.003-0.006-0.007-0.011-0.011-0.017c-0.092-0.137-0.277-0.175-0.416-0.086   c-0.133,0.095-0.164,0.28-0.069,0.413C111.455,211.005,111.456,211.005,111.456,211.006L111.456,211.006z M77.601,251.57   c-0.034,0.276,0.154,0.529,0.428,0.577c0.273,0.045,0.532-0.138,0.579-0.411c0.037-0.277-0.153-0.533-0.428-0.577   C77.907,251.114,77.648,251.298,77.601,251.57L77.601,251.57z M79.569,239.574c-0.046,0.273,0.138,0.533,0.411,0.579   c0.273,0.046,0.533-0.138,0.579-0.411s-0.137-0.533-0.411-0.579C79.875,239.118,79.616,239.302,79.569,239.574L79.569,239.574z    M81.519,227.58c-0.037,0.277,0.153,0.533,0.428,0.577c0.274,0.036,0.524-0.157,0.56-0.431s-0.157-0.524-0.431-0.56   C81.81,227.131,81.563,227.315,81.519,227.58z M127.497,240.239c0.171,0.223,0.487,0.274,0.719,0.116   c0.222-0.171,0.263-0.49,0.092-0.712c-0.166-0.215-0.471-0.261-0.693-0.106C127.395,239.702,127.343,240.011,127.497,240.239   L127.497,240.239z M120.404,230.373c0.165,0.221,0.474,0.273,0.702,0.118c0.227-0.16,0.282-0.474,0.122-0.701   s-0.474-0.282-0.701-0.122c-0.002,0.001-0.003,0.002-0.005,0.003C120.299,229.835,120.247,230.146,120.404,230.373L120.404,230.373   z M113.311,220.508c0.163,0.223,0.474,0.276,0.702,0.118c0.223-0.171,0.274-0.487,0.116-0.719c-0.171-0.222-0.49-0.263-0.712-0.092   C113.202,219.981,113.155,220.286,113.311,220.508L113.311,220.508z M106.217,210.643c0.163,0.223,0.475,0.276,0.702,0.118   c0.221-0.173,0.271-0.486,0.116-0.719c-0.16-0.22-0.469-0.269-0.689-0.109c-0.004,0.003-0.007,0.005-0.01,0.008   c-0.224,0.144-0.288,0.442-0.144,0.665C106.199,210.619,106.208,210.631,106.217,210.643L106.217,210.643z M101.537,245.502   c0.077,0.265,0.342,0.428,0.613,0.376c0.265-0.073,0.425-0.343,0.359-0.611c-0.057-0.267-0.319-0.437-0.586-0.381   c-0.003,0.001-0.007,0.001-0.01,0.002c-0.273,0.065-0.442,0.339-0.377,0.612C101.537,245.501,101.537,245.501,101.537,245.502z    M98.757,233.658c0.065,0.273,0.339,0.442,0.612,0.377h0.001c0.263-0.064,0.425-0.329,0.362-0.593c0,0,0,0,0-0.001   c-0.06-0.269-0.327-0.439-0.596-0.379C98.866,233.123,98.697,233.389,98.757,233.658L98.757,233.658z M95.979,221.832   c0.057,0.267,0.319,0.437,0.586,0.381c0.003-0.001,0.007-0.001,0.01-0.002c0.275-0.056,0.452-0.325,0.396-0.599   c-0.056-0.275-0.325-0.452-0.599-0.396c-0.275,0.056-0.452,0.325-0.396,0.599C95.976,221.821,95.977,221.827,95.979,221.832z    M93.201,210.006c0.07,0.267,0.344,0.427,0.611,0.356c0.259-0.068,0.418-0.329,0.361-0.59c-0.061-0.268-0.327-0.437-0.596-0.379   C93.304,209.459,93.136,209.733,93.201,210.006L93.201,210.006L93.201,210.006z M94.148,249.364   c0.06,0.269,0.326,0.438,0.594,0.378s0.438-0.326,0.378-0.594c-0.058-0.262-0.313-0.43-0.577-0.382   C94.269,248.823,94.092,249.09,94.148,249.364L94.148,249.364z M91.871,237.472c0.056,0.274,0.323,0.451,0.598,0.396   c0.265-0.058,0.439-0.312,0.398-0.581c-0.061-0.274-0.323-0.454-0.6-0.413C91.997,236.936,91.823,237.199,91.871,237.472   L91.871,237.472z M89.595,225.58c0.056,0.274,0.323,0.451,0.598,0.396c0.27-0.05,0.449-0.31,0.398-0.581   c-0.05-0.27-0.31-0.449-0.581-0.398C89.738,225.049,89.555,225.306,89.595,225.58z M87.335,213.685   c0.04,0.263,0.286,0.444,0.549,0.404c0.01-0.002,0.021-0.004,0.031-0.006c0.269-0.053,0.446-0.311,0.398-0.581   c-0.05-0.27-0.31-0.449-0.581-0.398S87.285,213.415,87.335,213.685L87.335,213.685z M116.911,208.085   c0.235,0.147,0.545,0.083,0.702-0.146c0.148-0.229,0.084-0.535-0.143-0.685c-0.214-0.157-0.515-0.111-0.672,0.104   c-0.005,0.007-0.011,0.015-0.016,0.023c-0.16,0.226-0.106,0.538,0.119,0.698C116.905,208.081,116.908,208.083,116.911,208.085z    M71.45,230.601c-0.053,0.268,0.122,0.528,0.39,0.581c0.001,0,0.003,0.001,0.004,0.001c0.27,0.06,0.539-0.109,0.601-0.379   c0.053-0.274-0.123-0.54-0.396-0.599C71.775,230.157,71.512,230.331,71.45,230.601L71.45,230.601z M114.652,234.512   c0.158,0.23,0.472,0.29,0.704,0.136c0.227-0.152,0.289-0.459,0.138-0.687c-0.139-0.231-0.439-0.306-0.671-0.167   c-0.006,0.004-0.012,0.008-0.018,0.012c-0.236,0.147-0.308,0.457-0.162,0.693C114.646,234.503,114.649,234.508,114.652,234.512   L114.652,234.512z M108.001,224.395c0.158,0.23,0.472,0.29,0.704,0.136c0.227-0.152,0.289-0.459,0.138-0.687   c-0.139-0.231-0.439-0.306-0.671-0.167c-0.006,0.004-0.012,0.008-0.018,0.012c-0.236,0.147-0.308,0.457-0.162,0.693   C107.995,224.386,107.998,224.391,108.001,224.395L108.001,224.395z M101.349,214.278c0.158,0.23,0.472,0.29,0.704,0.136   c0.227-0.152,0.289-0.459,0.138-0.687c-0.15-0.234-0.461-0.302-0.695-0.152s-0.302,0.461-0.152,0.695   C101.346,214.272,101.347,214.275,101.349,214.278z M94.533,228.463c0.082,0.192,0.304,0.282,0.497,0.2   c0.188-0.08,0.279-0.296,0.204-0.486c-0.07-0.187-0.278-0.283-0.466-0.213c-0.012,0.005-0.024,0.01-0.035,0.015   C94.547,228.061,94.459,228.275,94.533,228.463z M90.994,220.063c0.084,0.193,0.308,0.281,0.501,0.198s0.281-0.308,0.198-0.501l0,0   c-0.079-0.191-0.298-0.282-0.489-0.203c-0.004,0.002-0.008,0.003-0.012,0.005C91.002,219.649,90.914,219.87,90.994,220.063   L90.994,220.063z M87.453,211.646c0.084,0.193,0.308,0.282,0.501,0.198s0.281-0.308,0.198-0.501   c-0.084-0.193-0.308-0.282-0.501-0.198l0,0C87.461,211.232,87.373,211.453,87.453,211.646L87.453,211.646z M75.183,227.433   c0.006,0.207,0.176,0.372,0.383,0.372c0.204-0.013,0.365-0.179,0.372-0.383c-0.002-0.208-0.172-0.374-0.38-0.372   c-0.001,0-0.002,0-0.004,0c-0.201-0.004-0.368,0.155-0.372,0.356C75.182,227.415,75.183,227.424,75.183,227.433L75.183,227.433z    M107.594,214.402c0.141,0.146,0.373,0.15,0.519,0.009c0.003-0.003,0.006-0.006,0.009-0.009c0.15-0.139,0.159-0.374,0.019-0.524   c-0.007-0.007-0.014-0.014-0.021-0.021c-0.155-0.14-0.395-0.128-0.535,0.027C107.452,214.033,107.455,214.259,107.594,214.402   L107.594,214.402z M101.099,207.994c0.156,0.145,0.4,0.135,0.545-0.021c0.138-0.149,0.137-0.378-0.002-0.526   c-0.151-0.15-0.395-0.149-0.545,0.002S100.948,207.844,101.099,207.994z"/>     <linearGradient id="R_hand_1_Zu2I6I9Ayms-N9THMqxcV" gradientUnits="userSpaceOnUse" x1="63.7007" y1="347.647" x2="66.0658" y2="286.1552" gradientTransform="matrix(1 0 0 1 0 -70)">   <stop offset="0" stop-color="#FFBEB6"/>   <stop offset="1" stop-color="#F2A19C"/>  </linearGradient>  <path id="R_handZu2I6I9Ayms-N9THMqxcV" fill="url(#R_hand_1_Zu2I6I9Ayms-N9THMqxcV)" d="M36.721,232.79c0,0,17.286,26.176,22.299,41.707   c4.711,14.594,3.086,17.489,1.715,24.347s-1.372,13.374,7.544,13.717s20.232-2.743,20.232-7.887s-0.686-11.659-0.686-11.659   s6.173,0.343,3.429-7.201s-7.544-10.288-13.717-15.089s-10.974-31.549-10.288-49.038l-26.062,7.544"/>     <linearGradient id="L_sleeve_1_Zu2I6I9Ayms-N9THMqxcV" gradientUnits="userSpaceOnUse" x1="96.3817" y1="195.3089" x2="160.923" y2="195.3089" gradientTransform="matrix(1 0 0 1 0 -70)">   <stop offset="0.1291" stop-color="#428DFC"/>   <stop offset="0.9987" stop-color="#1D72D8"/>  </linearGradient>  <path id="L_sleeveZu2I6I9Ayms-N9THMqxcV" fill="url(#L_sleeve_1_Zu2I6I9Ayms-N9THMqxcV)" d="M160.923,158.504l-30.18,25.57c0,0-56.37-44.21-24.71-117.53   c9.34,10.54,16.45,6.01,16.45,6.01S124.703,124.614,160.923,158.504z"/>     <linearGradient id="sweater_1_Zu2I6I9Ayms-N9THMqxcV" gradientUnits="userSpaceOnUse" x1="144.6446" y1="179.5156" x2="43.7348" y2="298.5575" gradientTransform="matrix(1 0 0 1 0 -70)">   <stop offset="0.1291" stop-color="#428DFC"/>   <stop offset="0.9987" stop-color="#1D72D8"/>  </linearGradient>  <path id="sweaterZu2I6I9Ayms-N9THMqxcV" fill="url(#sweater_1_Zu2I6I9Ayms-N9THMqxcV)" d="M148.943,191.874c0,0-37.66,27.89-89.5,9.63c0,0-8.53-82.85,47.23-132.81l1.98,0.48   c8.02,7.08,13.83,3.38,13.83,3.38S133.663,158.904,148.943,191.874z"/>     <linearGradient id="neck_1_Zu2I6I9Ayms-N9THMqxcV" gradientUnits="userSpaceOnUse" x1="111.2032" y1="148.0798" x2="119.8896" y2="123.8178" gradientTransform="matrix(1 0 0 1 0 -70)">   <stop offset="0" stop-color="#FFBEB6"/>   <stop offset="1" stop-color="#F2A19C"/>  </linearGradient>  <path id="neckZu2I6I9Ayms-N9THMqxcV" fill="url(#neck_1_Zu2I6I9Ayms-N9THMqxcV)" d="M124.503,58.001c-1.372,4.727-2.054,9.628-2.023,14.551c0,0-7.104,4.529-16.445-6.006   l7.134-17.086L124.503,58.001"/>     <linearGradient id="R_shoe_1_Zu2I6I9Ayms-N9THMqxcV" gradientUnits="userSpaceOnUse" x1="48.031" y1="579.1844" x2="164.936" y2="579.1844" gradientTransform="matrix(1 0 0 1 0 -70)">   <stop offset="0" stop-color="#A1C3FC"/>   <stop offset="0.6955" stop-color="#81AEF2"/>   <stop offset="1" stop-color="#78A9EF"/>  </linearGradient>  <path id="R_shoeZu2I6I9Ayms-N9THMqxcV" fill="url(#R_shoe_1_Zu2I6I9Ayms-N9THMqxcV)" d="M64.591,486.754l-16.56,44.857l116.905,0.004c0,0-5.994-11.227-25.977-19.543   s-38.634-25.317-38.634-25.317L64.591,486.754"/>     <linearGradient id="case_1_Zu2I6I9Ayms-N9THMqxcV" gradientUnits="userSpaceOnUse" x1="81.8885" y1="430.8707" x2="132.4036" y2="563.405" gradientTransform="matrix(1 0 0 1 -1.310630e-05 -70)">   <stop offset="0" stop-color="#A1C3FC"/>   <stop offset="0.6955" stop-color="#81AEF2"/>   <stop offset="1" stop-color="#78A9EF"/>  </linearGradient>  <polygon id="caseZu2I6I9Ayms-N9THMqxcV" fill="url(#case_1_Zu2I6I9Ayms-N9THMqxcV)" points="0,334.191 152.308,304.469 173.498,413.058 21.191,442.78  "/>  <path id="R_sleeveZu2I6I9Ayms-N9THMqxcV" fill="#428DFC" d="M118.883,79.754c-6.905,11.694-12.838,23.935-17.74,36.6   c-13.44,34.43-16.82,63.44-17.02,65.32c-0.005,0.033-0.009,0.066-0.01,0.1l-0.07-0.03c-0.401,3.776-0.348,7.587,0.16,11.35   c1.42,12.86,3.35,24.39,3.35,24.39l-59.513,26.24c0,0-7.547-19.624-4.597-35.524c3.18-17.09,4.6-19.905,4.179-30.509   c-0.221-5.569-0.249-13.587,4.061-30.607c2.63-8.84,9.45-23.7,16.37-32.85c20.52-32.82,52.21-46.07,57.98-47.69   c9.34,10.54,16.45,6.01,16.45,6.01c0-0.53-0.023,0.498-0.003-0.002C121.473,75.044,120.271,77.452,118.883,79.754z"/>  <path id="faceZu2I6I9Ayms-N9THMqxcV" fill="#FFBEB6" d="M110.134,56.995c6.479,3.268,20.498,7.959,27.065,3.198c7.857-5.704,8.512-13.511,10.192-13.647   c1.676-0.125,5.198-1.265,5.229-3.063c0.039-1.783-4.61-6.894-5.328-13.407c-0.068-0.605-0.143-1.189-0.249-1.757l-0.007-0.015   c-0.009-0.139-0.029-0.277-0.059-0.413c-0.009-0.066-0.024-0.131-0.047-0.193c-0.008-0.022-0.012-0.045-0.014-0.068   c-0.022-0.083-0.039-0.178-0.057-0.273c-0.157-0.675-0.405-1.672-0.798-2.834c-0.178-0.543-0.389-1.135-0.642-1.755   c-0.274-0.7-0.621-1.431-1.001-2.171c-0.027-0.053-0.054-0.106-0.081-0.159c-0.096-0.183-0.179-0.364-0.281-0.548   c-0.177-0.327-0.369-0.647-0.573-0.971c-0.152-0.255-0.318-0.503-0.489-0.74c-0.074-0.114-0.159-0.233-0.245-0.351   c-0.152-0.217-0.315-0.439-0.483-0.649c-0.031-0.049-0.065-0.095-0.104-0.137c-0.004,0.011,0.003,0.026-0.004,0.049   c-0.008,0.533-0.062,1.065-0.161,1.589c-0.021,0.17-0.061,0.358-0.102,0.547c-0.156,0.701-0.374,1.388-0.651,2.051   c-0.039,0.113-0.09,0.222-0.144,0.342c-0.051,0.109-0.105,0.229-0.16,0.349c-0.109,0.24-0.233,0.488-0.369,0.732   c-0.012,0.034-0.031,0.052-0.043,0.086c-0.189,0.364-0.397,0.718-0.623,1.061c-0.074,0.139-0.166,0.259-0.251,0.393   c-0.004,0.008-0.011,0.015-0.019,0.019c-0.166,0.259-0.358,0.521-0.562,0.779l-0.008,0.023c-0.096,0.131-0.204,0.258-0.311,0.385   c-0.463,0.587-0.961,1.144-1.492,1.669c-0.18,0.19-0.383,0.373-0.59,0.567c-0.096,0.093-0.187,0.175-0.294,0.264   c-0.096,0.093-0.195,0.198-0.302,0.287c-0.055,0.051-0.114,0.098-0.176,0.141c-0.153,0.149-0.325,0.279-0.501,0.42   s-0.351,0.283-0.538,0.42c-0.176,0.141-0.351,0.283-0.55,0.416c-0.492,0.36-1.018,0.708-1.571,1.06   c-0.309,0.196-0.629,0.389-0.953,0.592c-1.246,0.724-2.53,1.379-3.847,1.963l-0.855,0.385c-2.63,1.154-5.107,2.629-7.375,4.392   c-0.322,0.306-0.647,0.623-0.988,0.947c-0.922,0.889-1.773,1.85-2.544,2.872C112.925,46.304,110.845,51.516,110.134,56.995z"/>  <path id="eyeglassesZu2I6I9Ayms-N9THMqxcV" fill="#428DFC" d="M157.763,35.35c1.108-3.262,0.071-6.879-2.309-8.068l-0.001-0.001   c-2.383-1.185-5.224,0.505-6.333,3.767c-0.127,0.377-0.227,0.763-0.299,1.155c-1.553-0.281-3.151,0.147-4.355,1.167   c-0.04-0.197-0.061-0.4-0.115-0.593c-0.368-1.624-1.411-3.014-2.868-3.821c-2.757-1.371-6.045,0.591-7.332,4.374   c-0.616,1.781-0.686,3.705-0.203,5.527c0.317,1.284,1.03,2.436,2.04,3.291c0.257,0.206,0.534,0.383,0.828,0.53   c1.368,0.673,2.991,0.569,4.261-0.274c1.468-0.969,2.554-2.418,3.07-4.1c0.423-1.255,0.584-2.584,0.473-3.904   c1.149-0.831,2.627-1.719,4.084-1.271c-0.252,2.061,0.498,4.118,2.017,5.534c0.219,0.176,0.456,0.328,0.707,0.454   C153.813,40.301,156.654,38.612,157.763,35.35z M140.644,41.562c-1.049,0.705-2.393,0.8-3.532,0.251   c-1.206-0.676-2.066-1.835-2.364-3.185c-0.426-1.618-0.36-3.326,0.19-4.906c1.124-3.307,3.928-5.056,6.251-3.9   c0.237,0.118,0.461,0.261,0.667,0.427c0.841,0.718,1.435,1.683,1.697,2.758c0.426,1.618,0.36,3.326-0.19,4.906   C142.907,39.408,141.946,40.698,140.644,41.562z M151.724,38.251c-1.954-0.974-2.766-4.026-1.818-6.811   c0.947-2.786,3.304-4.263,5.253-3.293c1.956,0.972,2.766,4.028,1.818,6.811C156.03,37.744,153.674,39.221,151.724,38.251z"/>  <path id="hairZu2I6I9Ayms-N9THMqxcV" fill="rgb(35,40,107)" d="M113.672,0.022c-7.019-0.28-13.88,2.135-19.178,6.748c-0.038,0.02-0.073,0.047-0.103,0.078   c-1.945,1.335-8.127,6.37-11.524,18.017c-0.83,3.13-2.145,6.11-3.898,8.833c-5.711,5.296-13.461,7.725-18.997,13.251   c-5.103,5.221-7.699,12.393-7.121,19.67c0.04,0.639,1.04,0.644,1,0c-0.589-9.398,3.641-17.43,11.434-22.635   c3.13-2.091,6.438-3.824,9.542-5.857c-2.905,2.299-6.187,3.809-9.731,6.705c-7.427,6.069-10.017,15.796-9.292,22.729   c0,0,20.887,12.51,55.749,13.741c-1.375-5.524-2.047-11.2-2.002-16.893c-0.078-6.105,1.176-12.153,3.675-17.723   c-4.395,11.775-2.871,24.943,4.095,35.403c0.351,0.536,1.217,0.036,0.864-0.505c-8.314-12.429-8.602-28.568-0.735-41.285   c0.406-0.456,0.83-0.901,1.274-1.331c0.341-0.324,0.666-0.641,0.988-0.947c2.525-1.942,5.292-3.548,8.23-4.777   c14.45-6.433,14.223-15.774,14.213-16.22c2.466,3.344,4.138,7.206,4.888,11.293C149.85,6.557,129.876,0.653,113.672,0.022z"/> </g> </g>
              </svg>